<?xml version="1.0" standalone="yes"?>

<svg version="1.1" viewBox="0.0 0.0 960.0 720.0" fill="none" stroke="none" stroke-linecap="square" stroke-miterlimit="10" xmlns="http://www.w3.org/2000/svg" xmlns:xlink="http://www.w3.org/1999/xlink"><clipPath id="p.0"><path d="m0 0l960.0 0l0 720.0l-960.0 0l0 -720.0z" clip-rule="nonzero"></path></clipPath><g clip-path="url(#p.0)"><path fill="#000000" fill-opacity="0.0" d="m0 0l960.0 0l0 720.0l-960.0 0z" fill-rule="nonzero"></path><path fill="#cfe2f3" d="m164.83464 148.83464l630.3307 0l0 89.6693l-630.3307 0z" fill-rule="nonzero"></path><path stroke="#000000" stroke-width="1.0" stroke-linejoin="round" stroke-linecap="butt" d="m164.83464 148.83464l630.3307 0l0 89.6693l-630.3307 0z" fill-rule="nonzero"></path><path fill="#000000" d="m451.1875 200.71742l4.640625 -11.0625l-0.734375 0q-1.15625 0 -1.65625 -0.4375q-0.484375 -0.453125 -0.484375 -1.171875q0 -0.71875 0.484375 -1.15625q0.5 -0.453125 1.65625 -0.453125l4.296875 0.015625q1.15625 0 1.640625 0.4375q0.5 0.4375 0.5 1.15625q0 0.859375 -0.75 1.359375q-0.359375 0.25 -1.46875 0.25l-6.578125 15.734375l-3.078125 0l-6.5625 -15.734375q-1.125 0 -1.484375 -0.25q-0.75 -0.484375 -0.75 -1.359375q0 -0.71875 0.5 -1.15625q0.484375 -0.453125 1.640625 -0.453125l4.328125 0.015625q1.140625 0 1.625 0.4375q0.5 0.4375 0.5 1.15625q0 0.71875 -0.484375 1.171875q-0.484375 0.4375 -1.640625 0.4375l-0.75 0l4.609375 11.0625zm20.8125 -11.0625l0 12.53125l3.234375 0q1.15625 0 1.640625 0.453125q0.5 0.4375 0.5 1.15625q0 0.703125 -0.5 1.15625q-0.484375 0.4375 -1.640625 0.4375l-9.671875 0q-1.15625 0 -1.65625 -0.4375q-0.484375 -0.453125 -0.484375 -1.171875q0 -0.703125 0.484375 -1.140625q0.5 -0.453125 1.65625 -0.453125l3.234375 0l0 -12.53125l-3.234375 0q-1.15625 0 -1.65625 -0.4375q-0.484375 -0.453125 -0.484375 -1.171875q0 -0.71875 0.484375 -1.15625q0.5 -0.453125 1.65625 -0.453125l9.671875 0.015625q1.15625 0 1.640625 0.4375q0.5 0.4375 0.5 1.15625q0 0.71875 -0.5 1.171875q-0.484375 0.4375 -1.640625 0.4375l-3.234375 0zm14.3125 7.828125l0 4.703125l8.171875 0l0 -1.734375q0 -1.15625 0.4375 -1.640625q0.453125 -0.5 1.171875 -0.5q0.703125 0 1.140625 0.5q0.453125 0.484375 0.453125 1.640625l0 4.9375l-15.078125 0q-1.15625 0 -1.65625 -0.4375q-0.484375 -0.453125 -0.484375 -1.171875q0 -0.703125 0.5 -1.140625q0.5 -0.453125 1.640625 -0.453125l0.5 0l0 -12.53125l-0.5 0q-1.15625 0 -1.65625 -0.4375q-0.484375 -0.453125 -0.484375 -1.171875q0 -0.71875 0.484375 -1.15625q0.5 -0.453125 1.65625 -0.453125l14.375 0.015625l0 4.875q0 1.140625 -0.4375 1.640625q-0.4375 0.484375 -1.15625 0.484375q-0.71875 0 -1.171875 -0.484375q-0.4375 -0.484375 -0.4375 -1.640625l0 -1.671875l-7.46875 0l0 4.625l2.8125 0q0 -1.25 0.234375 -1.609375q0.484375 -0.765625 1.375 -0.765625q0.703125 0 1.140625 0.5q0.453125 0.484375 0.453125 1.640625l0 3.6875q0 1.046875 -0.25 1.40625q-0.5 0.734375 -1.34375 0.734375q-0.890625 0 -1.375 -0.765625q-0.234375 -0.359375 -0.234375 -1.625l-2.8125 0zm22.5 -1.1875l-2.96875 9.09375l-3.59375 0l-1.90625 -15.734375q-0.734375 -0.09375 -1.109375 -0.5q-0.375 -0.421875 -0.375 -1.0625q0 -0.75 0.484375 -1.203125q0.5 -0.453125 1.65625 -0.453125l4.265625 0.015625q1.15625 0 1.640625 0.4375q0.5 0.4375 0.5 1.15625q0 0.71875 -0.5 1.171875q-0.484375 0.4375 -1.640625 0.4375l-1.671875 0l1.0625 8.953125l2.515625 -7.453125l3.328125 0l2.5 7.453125l1.0625 -8.953125l-1.671875 0q-1.15625 0 -1.65625 -0.4375q-0.484375 -0.453125 -0.484375 -1.171875q0 -0.71875 0.484375 -1.15625q0.5 -0.453125 1.65625 -0.453125l4.25 0.015625q1.15625 0 1.640625 0.4375q0.5 0.4375 0.5 1.15625q0 0.609375 -0.390625 1.046875q-0.390625 0.4375 -1.125 0.5625l-1.84375 15.734375l-3.53125 0l-3.078125 -9.09375z" fill-rule="nonzero"></path><path fill="#cfe2f3" d="m164.83464 315.16534l630.3307 0l0 89.66931l-630.3307 0z" fill-rule="nonzero"></path><path stroke="#000000" stroke-width="1.0" stroke-linejoin="round" stroke-linecap="butt" d="m164.83464 315.16534l630.3307 0l0 89.66931l-630.3307 0z" fill-rule="nonzero"></path><path fill="#000000" d="m403.1797 367.04813l4.640625 -11.0625l-0.734375 0q-1.15625 0 -1.65625 -0.4375q-0.484375 -0.453125 -0.484375 -1.171875q0 -0.71875 0.484375 -1.15625q0.5 -0.453125 1.65625 -0.453125l4.296875 0.015625q1.15625 0 1.640625 0.4375q0.5 0.4375 0.5 1.15625q0 0.859375 -0.75 1.359375q-0.359375 0.25 -1.46875 0.25l-6.578125 15.734375l-3.078125 0l-6.5625 -15.734375q-1.125 0 -1.484375 -0.25q-0.75 -0.484375 -0.75 -1.359375q0 -0.71875 0.5 -1.15625q0.484375 -0.453125 1.640625 -0.453125l4.328125 0.015625q1.140625 0 1.625 0.4375q0.5 0.4375 0.5 1.15625q0 0.71875 -0.484375 1.171875q-0.484375 0.4375 -1.640625 0.4375l-0.75 0l4.609375 11.0625zm20.8125 -11.0625l0 12.53125l3.234375 0q1.15625 0 1.640625 0.453125q0.5 0.4375 0.5 1.15625q0 0.703125 -0.5 1.15625q-0.484375 0.4375 -1.640625 0.4375l-9.671875 0q-1.15625 0 -1.65625 -0.4375q-0.484375 -0.453125 -0.484375 -1.171875q0 -0.703125 0.484375 -1.140625q0.5 -0.453125 1.65625 -0.453125l3.234375 0l0 -12.53125l-3.234375 0q-1.15625 0 -1.65625 -0.4375q-0.484375 -0.453125 -0.484375 -1.171875q0 -0.71875 0.484375 -1.15625q0.5 -0.453125 1.65625 -0.453125l9.671875 0.015625q1.15625 0 1.640625 0.4375q0.5 0.4375 0.5 1.15625q0 0.71875 -0.5 1.171875q-0.484375 0.4375 -1.640625 0.4375l-3.234375 0zm14.3125 7.828125l0 4.703125l8.171875 0l0 -1.734375q0 -1.15625 0.4375 -1.640625q0.453125 -0.5 1.171875 -0.5q0.703125 0 1.140625 0.5q0.453125 0.484375 0.453125 1.640625l0 4.9375l-15.078125 0q-1.15625 0 -1.65625 -0.4375q-0.484375 -0.453125 -0.484375 -1.171875q0 -0.703125 0.5 -1.140625q0.5 -0.453125 1.640625 -0.453125l0.5 0l0 -12.53125l-0.5 0q-1.15625 0 -1.65625 -0.4375q-0.484375 -0.453125 -0.484375 -1.171875q0 -0.71875 0.484375 -1.15625q0.5 -0.453125 1.65625 -0.453125l14.375 0.015625l0 4.875q0 1.140625 -0.4375 1.640625q-0.4375 0.484375 -1.15625 0.484375q-0.71875 0 -1.171875 -0.484375q-0.4375 -0.484375 -0.4375 -1.640625l0 -1.671875l-7.46875 0l0 4.625l2.8125 0q0 -1.25 0.234375 -1.609375q0.484375 -0.765625 1.375 -0.765625q0.703125 0 1.140625 0.5q0.453125 0.484375 0.453125 1.640625l0 3.6875q0 1.046875 -0.25 1.40625q-0.5 0.734375 -1.34375 0.734375q-0.890625 0 -1.375 -0.765625q-0.234375 -0.359375 -0.234375 -1.625l-2.8125 0zm22.5 -1.1875l-2.96875 9.09375l-3.59375 0l-1.90625 -15.734375q-0.734375 -0.09375 -1.109375 -0.5q-0.375 -0.421875 -0.375 -1.0625q0 -0.75 0.484375 -1.203125q0.5 -0.453125 1.65625 -0.453125l4.265625 0.015625q1.15625 0 1.640625 0.4375q0.5 0.4375 0.5 1.15625q0 0.71875 -0.5 1.171875q-0.484375 0.4375 -1.640625 0.4375l-1.671875 0l1.0625 8.953125l2.515625 -7.453125l3.328125 0l2.5 7.453125l1.0625 -8.953125l-1.671875 0q-1.15625 0 -1.65625 -0.4375q-0.484375 -0.453125 -0.484375 -1.171875q0 -0.71875 0.484375 -1.15625q0.5 -0.453125 1.65625 -0.453125l4.25 0.015625q1.15625 0 1.640625 0.4375q0.5 0.4375 0.5 1.15625q0 0.609375 -0.390625 1.046875q-0.390625 0.4375 -1.125 0.5625l-1.84375 15.734375l-3.53125 0l-3.078125 -9.09375zm14.1875 -3.65625l0 9.546875l1.15625 0q1.15625 0 1.640625 0.453125q0.5 0.4375 0.5 1.15625q0 0.703125 -0.5 1.15625q-0.484375 0.4375 -1.640625 0.4375l-4.203125 0q-1.15625 0 -1.640625 -0.4375q-0.5 -0.453125 -0.5 -1.171875q0 -0.703125 0.484375 -1.140625q0.484375 -0.453125 1.5 -0.453125l0 -12.53125q-0.84375 -0.078125 -1.28125 -0.515625q-0.421875 -0.4375 -0.421875 -1.09375q0 -0.71875 0.484375 -1.15625q0.5 -0.453125 1.65625 -0.453125l3.515625 0.015625l4.359375 9.640625l4.28125 -9.65625l3.546875 0.015625q1.15625 0 1.640625 0.4375q0.5 0.4375 0.5 1.15625q0 0.65625 -0.4375 1.09375q-0.4375 0.4375 -1.265625 0.515625l0 12.53125q1.015625 0 1.5 0.453125q0.484375 0.453125 0.484375 1.15625q0 0.703125 -0.5 1.15625q-0.484375 0.4375 -1.640625 0.4375l-4.21875 0q-1.140625 0 -1.640625 -0.4375q-0.484375 -0.453125 -0.484375 -1.171875q0 -0.703125 0.484375 -1.140625q0.5 -0.453125 1.640625 -0.453125l1.171875 0l0 -9.546875l-3.671875 8.25l-2.78125 0l-3.71875 -8.25zm33.203125 3.28125q0 4.265625 -2.71875 7.109375q-2.703125 2.828125 -6.265625 2.828125q-3.203125 0 -5.78125 -2.359375q-3.1875 -2.921875 -3.1875 -7.578125q0 -4.65625 3.1875 -7.59375q2.578125 -2.359375 5.78125 -2.359375q3.5625 0 6.265625 2.84375q2.71875 2.828125 2.71875 7.109375zm-3.203125 0q0 -2.921875 -1.765625 -4.828125q-1.765625 -1.921875 -4.015625 -1.921875q-2.234375 0 -4.0 1.921875q-1.765625 1.921875 -1.765625 4.828125q0 2.90625 1.765625 4.828125q1.765625 1.90625 4.0 1.90625q2.25 0 4.015625 -1.90625q1.765625 -1.90625 1.765625 -4.828125zm6.25 6.265625l0 -12.53125q-1.015625 -0.015625 -1.5 -0.453125q-0.484375 -0.453125 -0.484375 -1.15625q0 -0.71875 0.484375 -1.15625q0.5 -0.453125 1.65625 -0.453125l6.703125 0.015625q1.5625 0 3.046875 0.578125q1.5 0.578125 2.40625 1.46875q0.6875 0.671875 1.421875 1.84375q0.75 1.171875 1.125 2.328125q0.375 1.15625 0.375 2.828125l0 1.53125q0 2.03125 -0.6875 3.609375q-0.6875 1.5625 -1.8125 2.5625q-1.109375 0.984375 -2.09375 1.453125q-1.5625 0.734375 -4.046875 0.734375l-6.4375 0q-1.15625 0 -1.65625 -0.4375q-0.484375 -0.453125 -0.484375 -1.171875q0 -0.703125 0.484375 -1.15625q0.5 -0.453125 1.5 -0.4375zm3.203125 0l3.40625 0q1.90625 0 2.875 -0.546875q1.265625 -0.71875 1.90625 -1.828125q0.640625 -1.109375 0.640625 -2.875l0 -1.515625q0 -1.515625 -0.578125 -2.65625q-0.90625 -1.78125 -2.046875 -2.4375q-1.125 -0.671875 -2.828125 -0.671875l-3.375 0l0 12.53125zm19.875 -4.703125l0 4.703125l8.171875 0l0 -1.734375q0 -1.15625 0.4375 -1.640625q0.453125 -0.5 1.171875 -0.5q0.703125 0 1.140625 0.5q0.453125 0.484375 0.453125 1.640625l0 4.9375l-15.078125 0q-1.15625 0 -1.65625 -0.4375q-0.484375 -0.453125 -0.484375 -1.171875q0 -0.703125 0.5 -1.140625q0.5 -0.453125 1.640625 -0.453125l0.5 0l0 -12.53125l-0.5 0q-1.15625 0 -1.65625 -0.4375q-0.484375 -0.453125 -0.484375 -1.171875q0 -0.71875 0.484375 -1.15625q0.5 -0.453125 1.65625 -0.453125l14.375 0.015625l0 4.875q0 1.140625 -0.4375 1.640625q-0.4375 0.484375 -1.15625 0.484375q-0.71875 0 -1.171875 -0.484375q-0.4375 -0.484375 -0.4375 -1.640625l0 -1.671875l-7.46875 0l0 4.625l2.8125 0q0 -1.25 0.234375 -1.609375q0.484375 -0.765625 1.375 -0.765625q0.703125 0 1.140625 0.5q0.453125 0.484375 0.453125 1.640625l0 3.6875q0 1.046875 -0.25 1.40625q-0.5 0.734375 -1.34375 0.734375q-0.890625 0 -1.375 -0.765625q-0.234375 -0.359375 -0.234375 -1.625l-2.8125 0zm21.15625 -7.828125l0 12.53125l6.90625 0l0 -3.03125q0 -1.15625 0.4375 -1.640625q0.453125 -0.5 1.171875 -0.5q0.703125 0 1.140625 0.5q0.453125 0.484375 0.453125 1.640625l0 6.234375l-15.171875 0q-1.15625 0 -1.65625 -0.4375q-0.484375 -0.453125 -0.484375 -1.171875q0 -0.703125 0.484375 -1.140625q0.5 -0.453125 1.65625 -0.453125l1.859375 0l0 -12.53125l-1.859375 0q-1.15625 0 -1.65625 -0.4375q-0.484375 -0.453125 -0.484375 -1.171875q0 -0.71875 0.484375 -1.15625q0.5 -0.453125 1.65625 -0.453125l6.9375 0.015625q1.15625 0 1.640625 0.4375q0.5 0.4375 0.5 1.15625q0 0.71875 -0.5 1.171875q-0.484375 0.4375 -1.640625 0.4375l-1.875 0z" fill-rule="nonzero"></path><path fill="#cfe2f3" d="m164.83464 481.49606l630.3307 0l0 89.66928l-630.3307 0z" fill-rule="nonzero"></path><path stroke="#000000" stroke-width="1.0" stroke-linejoin="round" stroke-linecap="butt" d="m164.83464 481.49606l630.3307 0l0 89.66928l-630.3307 0z" fill-rule="nonzero"></path><path fill="#000000" d="m436.58594 525.3007l0 9.546875l1.15625 0q1.15625 0 1.640625 0.453125q0.5 0.4375 0.5 1.15625q0 0.703125 -0.5 1.15625q-0.484375 0.4375 -1.640625 0.4375l-4.203125 0q-1.15625 0 -1.640625 -0.4375q-0.5 -0.453125 -0.5 -1.171875q0 -0.703125 0.484375 -1.140625q0.484375 -0.453125 1.5 -0.453125l0 -12.53125q-0.84375 -0.078125 -1.28125 -0.515625q-0.421875 -0.4375 -0.421875 -1.09375q0 -0.71875 0.484375 -1.15625q0.5 -0.453125 1.65625 -0.453125l3.515625 0.015625l4.359375 9.640625l4.28125 -9.65625l3.546875 0.015625q1.15625 0 1.640625 0.4375q0.5 0.4375 0.5 1.15625q0 0.65625 -0.4375 1.09375q-0.4375 0.4375 -1.265625 0.515625l0 12.53125q1.015625 0 1.5 0.453125q0.484375 0.453125 0.484375 1.15625q0 0.703125 -0.5 1.15625q-0.484375 0.4375 -1.640625 0.4375l-4.21875 0q-1.140625 0 -1.640625 -0.4375q-0.484375 -0.453125 -0.484375 -1.171875q0 -0.703125 0.484375 -1.140625q0.5 -0.453125 1.640625 -0.453125l1.171875 0l0 -9.546875l-3.671875 8.25l-2.78125 0l-3.71875 -8.25zm33.203125 3.28125q0 4.265625 -2.71875 7.109375q-2.703125 2.828125 -6.265625 2.828125q-3.203125 0 -5.78125 -2.359375q-3.1875 -2.921875 -3.1875 -7.578125q0 -4.65625 3.1875 -7.59375q2.578125 -2.359375 5.78125 -2.359375q3.5625 0 6.265625 2.84375q2.71875 2.828125 2.71875 7.109375zm-3.203125 0q0 -2.921875 -1.765625 -4.828125q-1.765625 -1.921875 -4.015625 -1.921875q-2.234375 0 -4.0 1.921875q-1.765625 1.921875 -1.765625 4.828125q0 2.90625 1.765625 4.828125q1.765625 1.90625 4.0 1.90625q2.25 0 4.015625 -1.90625q1.765625 -1.90625 1.765625 -4.828125zm6.25 6.265625l0 -12.53125q-1.015625 -0.015625 -1.5 -0.453125q-0.484375 -0.453125 -0.484375 -1.15625q0 -0.71875 0.484375 -1.15625q0.5 -0.453125 1.65625 -0.453125l6.703125 0.015625q1.5625 0 3.046875 0.578125q1.5 0.578125 2.40625 1.46875q0.6875 0.671875 1.421875 1.84375q0.75 1.171875 1.125 2.328125q0.375 1.15625 0.375 2.828125l0 1.53125q0 2.03125 -0.6875 3.609375q-0.6875 1.5625 -1.8125 2.5625q-1.109375 0.984375 -2.09375 1.453125q-1.5625 0.734375 -4.046875 0.734375l-6.4375 0q-1.15625 0 -1.65625 -0.4375q-0.484375 -0.453125 -0.484375 -1.171875q0 -0.703125 0.484375 -1.15625q0.5 -0.453125 1.5 -0.4375zm3.203125 0l3.40625 0q1.90625 0 2.875 -0.546875q1.265625 -0.71875 1.90625 -1.828125q0.640625 -1.109375 0.640625 -2.875l0 -1.515625q0 -1.515625 -0.578125 -2.65625q-0.90625 -1.78125 -2.046875 -2.4375q-1.125 -0.671875 -2.828125 -0.671875l-3.375 0l0 12.53125zm19.875 -4.703125l0 4.703125l8.171875 0l0 -1.734375q0 -1.15625 0.4375 -1.640625q0.453125 -0.5 1.171875 -0.5q0.703125 0 1.140625 0.5q0.453125 0.484375 0.453125 1.640625l0 4.9375l-15.078125 0q-1.15625 0 -1.65625 -0.4375q-0.484375 -0.453125 -0.484375 -1.171875q0 -0.703125 0.5 -1.140625q0.5 -0.453125 1.640625 -0.453125l0.5 0l0 -12.53125l-0.5 0q-1.15625 0 -1.65625 -0.4375q-0.484375 -0.453125 -0.484375 -1.171875q0 -0.71875 0.484375 -1.15625q0.5 -0.453125 1.65625 -0.453125l14.375 0.015625l0 4.875q0 1.140625 -0.4375 1.640625q-0.4375 0.484375 -1.15625 0.484375q-0.71875 0 -1.171875 -0.484375q-0.4375 -0.484375 -0.4375 -1.640625l0 -1.671875l-7.46875 0l0 4.625l2.8125 0q0 -1.25 0.234375 -1.609375q0.484375 -0.765625 1.375 -0.765625q0.703125 0 1.140625 0.5q0.453125 0.484375 0.453125 1.640625l0 3.6875q0 1.046875 -0.25 1.40625q-0.5 0.734375 -1.34375 0.734375q-0.890625 0 -1.375 -0.765625q-0.234375 -0.359375 -0.234375 -1.625l-2.8125 0zm21.15625 -7.828125l0 12.53125l6.90625 0l0 -3.03125q0 -1.15625 0.4375 -1.640625q0.453125 -0.5 1.171875 -0.5q0.703125 0 1.140625 0.5q0.453125 0.484375 0.453125 1.640625l0 6.234375l-15.171875 0q-1.15625 0 -1.65625 -0.4375q-0.484375 -0.453125 -0.484375 -1.171875q0 -0.703125 0.484375 -1.140625q0.5 -0.453125 1.65625 -0.453125l1.859375 0l0 -12.53125l-1.859375 0q-1.15625 0 -1.65625 -0.4375q-0.484375 -0.453125 -0.484375 -1.171875q0 -0.71875 0.484375 -1.15625q0.5 -0.453125 1.65625 -0.453125l6.9375 0.015625q1.15625 0 1.640625 0.4375q0.5 0.4375 0.5 1.15625q0 0.71875 -0.5 1.171875q-0.484375 0.4375 -1.640625 0.4375l-1.875 0z" fill-rule="nonzero"></path><path fill="#000000" fill-opacity="0.0" d="m684.3989 239.90552l-2.64563 73.85828" fill-rule="nonzero"></path><path stroke="#000000" stroke-width="4.0" stroke-linejoin="round" stroke-linecap="butt" d="m684.3989 239.90552l-1.786499 49.873627" fill-rule="evenodd"></path><path fill="#000000" stroke="#000000" stroke-width="4.0" stroke-linecap="butt" d="m676.00977 289.54266l5.95282 18.377258l7.2525635 -17.904236z" fill-rule="evenodd"></path><path fill="#000000" fill-opacity="0.0" d="m265.90027 313.7638l2.6456604 -73.85828" fill-rule="nonzero"></path><path stroke="#000000" stroke-width="4.0" stroke-linejoin="round" stroke-linecap="butt" d="m265.90027 313.7638l1.786499 -49.873657" fill-rule="evenodd"></path><path fill="#000000" stroke="#000000" stroke-width="4.0" stroke-linecap="butt" d="m274.2895 264.12665l-5.952881 -18.377274l-7.252533 17.904251z" fill-rule="evenodd"></path><path fill="#000000" fill-opacity="0.0" d="m374.89764 409.5433l-2.6456604 79.1181" fill-rule="nonzero"></path><path stroke="#000000" stroke-width="4.0" stroke-linejoin="round" stroke-linecap="butt" d="m374.89764 409.5433l-1.8435974 55.13153" fill-rule="evenodd"></path><path fill="#000000" stroke="#000000" stroke-width="4.0" stroke-linecap="butt" d="m366.45084 464.454l5.9965515 18.363068l7.2099304 -17.921448z" fill-rule="evenodd"></path><path fill="#000000" fill-opacity="0.0" d="m481.32285 239.90552l-2.645691 73.85828" fill-rule="nonzero"></path><path stroke="#000000" stroke-width="4.0" stroke-linejoin="round" stroke-linecap="butt" d="m481.32285 239.90552l-1.786499 49.873627" fill-rule="evenodd"></path><path fill="#000000" stroke="#000000" stroke-width="4.0" stroke-linecap="butt" d="m472.93362 289.54266l5.952881 18.377258l7.2525024 -17.904236z" fill-rule="evenodd"></path><path fill="#000000" fill-opacity="0.0" d="m116.04199 243.2126l162.20471 0l0 67.244095l-162.20471 0z" fill-rule="nonzero"></path><path fill="#c27ba0" d="m135.15137 257.7576l0 2.6875l-1.265625 0q-0.21875 -1.046875 -0.703125 -1.546875q-0.484375 -0.5 -1.265625 -0.5q-1.46875 0 -2.21875 1.40625q-0.75 1.40625 -0.75 4.171875q0 2.578125 0.6875 3.90625q0.6875 1.3125 2.015625 1.3125q0.671875 0 1.09375 -0.21875q0.4375 -0.234375 0.6875 -0.6875q0.25 -0.453125 0.4375 -1.28125l1.28125 0l0 2.8125q-1.03125 0.234375 -1.875 0.34375q-0.84375 0.125 -1.75 0.125q-1.921875 0 -3.15625 -0.703125q-1.21875 -0.703125 -1.796875 -2.09375q-0.578125 -1.40625 -0.578125 -3.5625q0 -2.015625 0.671875 -3.5q0.6875 -1.5 2.015625 -2.296875q1.328125 -0.8125 3.171875 -0.8125q0.9375 0 1.703125 0.109375q0.765625 0.09375 1.59375 0.328125zm4.8976746 4.390625q0.84375 -0.75 1.5 -1.0625q0.65625 -0.3125 1.359375 -0.3125q1.015625 0 1.578125 0.390625q0.5625 0.375 0.8125 1.078125q0.25 0.703125 0.25 1.828125l0 3.375q0 0.421875 0.015625 0.78125q0.015625 0.34375 0.0625 0.5625q0.0625 0.21875 0.15625 0.359375q0.109375 0.125 0.28125 0.21875q0.171875 0.09375 0.421875 0.15625l0 0.609375l-4.5 0l0 -0.609375q0.4375 -0.109375 0.59375 -0.296875q0.171875 -0.203125 0.234375 -0.546875q0.0625 -0.34375 0.0625 -1.21875l0 -2.421875q0 -0.921875 -0.0625 -1.4375q-0.0625 -0.515625 -0.21875 -0.796875q-0.140625 -0.28125 -0.375 -0.421875q-0.21875 -0.140625 -0.578125 -0.140625q-0.359375 0 -0.75 0.21875q-0.375 0.21875 -0.640625 0.59375q-0.25 0.375 -0.25 0.796875l0 3.59375q0 0.53125 0.015625 0.8125q0.015625 0.28125 0.03125 0.4375q0.03125 0.140625 0.078125 0.265625q0.0625 0.125 0.140625 0.234375q0.09375 0.09375 0.25 0.1875q0.15625 0.078125 0.421875 0.140625l0 0.609375l-4.546875 0l0 -0.609375q0.265625 -0.0625 0.421875 -0.15625q0.171875 -0.09375 0.25 -0.203125q0.09375 -0.109375 0.15625 -0.296875q0.0625 -0.1875 0.078125 -0.5q0.03125 -0.328125 0.03125 -0.921875l0 -7.234375q0 -0.796875 -0.015625 -1.171875q-0.015625 -0.375 -0.0625 -0.625q-0.046875 -0.265625 -0.140625 -0.40625q-0.09375 -0.15625 -0.28125 -0.25q-0.171875 -0.09375 -0.5625 -0.171875l0 -0.609375l2.578125 -0.125l1.15625 0l0 5.296875l0.046875 0zm13.100555 6.765625l-0.140625 -0.046875q-0.765625 0.75 -1.484375 1.09375q-0.71875 0.328125 -1.515625 0.328125q-0.796875 0 -1.390625 -0.296875q-0.59375 -0.296875 -0.890625 -0.8125q-0.296875 -0.515625 -0.296875 -1.203125q0 -1.359375 1.328125 -2.140625q1.34375 -0.78125 4.078125 -0.984375l0 -0.890625q0 -0.859375 -0.203125 -1.328125q-0.1875 -0.46875 -0.5 -0.65625q-0.296875 -0.1875 -0.734375 -0.1875q-0.421875 0 -0.734375 0.15625q-0.3125 0.140625 -0.5625 0.546875q-0.25 0.40625 -0.375 1.140625l-1.75 0l0 -1.6875q0.859375 -0.375 1.421875 -0.578125q0.5625 -0.203125 1.109375 -0.328125q0.5625 -0.140625 1.0 -0.203125q0.4375 -0.0625 0.875 -0.0625q1.125 0 1.796875 0.296875q0.671875 0.296875 1.0 0.96875q0.328125 0.671875 0.328125 1.84375l0 3.625q0 0.609375 0.03125 0.953125q0.03125 0.328125 0.09375 0.5q0.0625 0.15625 0.15625 0.25q0.09375 0.09375 0.21875 0.15625q0.140625 0.0625 0.515625 0.15625l0 0.609375l-3.453125 0l0.078125 -1.21875zm-0.3125 -3.15625q-1.4375 0.03125 -2.125 0.53125q-0.6875 0.5 -0.6875 1.46875q0 0.578125 0.3125 0.875q0.3125 0.296875 0.875 0.296875q0.421875 0 0.796875 -0.21875q0.390625 -0.234375 0.609375 -0.609375q0.21875 -0.375 0.21875 -0.8125l0 -1.53125zm14.890259 4.375l-4.484375 0l0 -0.609375q0.421875 -0.109375 0.578125 -0.296875q0.171875 -0.203125 0.234375 -0.546875q0.0625 -0.34375 0.0625 -1.21875l0 -2.484375q0 -0.65625 -0.03125 -1.078125q-0.03125 -0.421875 -0.09375 -0.6875q-0.046875 -0.265625 -0.15625 -0.4375q-0.109375 -0.1875 -0.25 -0.296875q-0.125 -0.125 -0.296875 -0.171875q-0.15625 -0.0625 -0.421875 -0.0625q-0.34375 0 -0.734375 0.21875q-0.375 0.21875 -0.640625 0.609375q-0.25 0.375 -0.25 0.8125l0 3.5625q0 0.890625 0.046875 1.234375q0.0625 0.34375 0.234375 0.546875q0.171875 0.1875 0.609375 0.296875l0 0.609375l-4.484375 0l0 -0.609375q0.453125 -0.125 0.625 -0.3125q0.171875 -0.203125 0.21875 -0.53125q0.0625 -0.34375 0.0625 -1.21875l0 -3.8125q0 -0.6875 -0.03125 -1.015625q-0.015625 -0.328125 -0.109375 -0.53125q-0.078125 -0.203125 -0.265625 -0.328125q-0.171875 -0.125 -0.625 -0.21875l0 -0.625l2.546875 -0.078125l1.171875 0l-0.140625 1.34375l0.109375 0.03125q0.578125 -0.515625 1.015625 -0.8125q0.4375 -0.296875 0.90625 -0.46875q0.484375 -0.171875 1.015625 -0.171875q0.75 0 1.25 0.21875q0.515625 0.21875 0.8125 0.640625q0.3125 0.421875 0.453125 1.03125q0.140625 0.59375 0.140625 1.390625l0 3.390625q0 0.421875 0 0.78125q0.015625 0.34375 0.0625 0.5625q0.0625 0.21875 0.15625 0.359375q0.109375 0.125 0.28125 0.21875q0.171875 0.09375 0.421875 0.15625l0 0.609375zm10.149963 -7.953125l-1.578125 -0.1875l-0.046875 0.109375q0.265625 0.25 0.4375 0.703125q0.171875 0.453125 0.171875 1.078125q0 1.625 -0.984375 2.46875q-0.96875 0.828125 -2.875 0.828125q-0.921875 0 -1.5 -0.171875q-0.46875 0.421875 -0.46875 0.890625q0 0.28125 0.109375 0.4375q0.125 0.140625 0.40625 0.21875q0.28125 0.078125 0.78125 0.078125l2.296875 0q1.5625 0 2.328125 0.609375q0.765625 0.609375 0.765625 1.875q0 0.984375 -0.5625 1.703125q-0.5625 0.71875 -1.609375 1.09375q-1.046875 0.375 -2.484375 0.375q-1.046875 0 -1.90625 -0.09375q-0.84375 -0.09375 -1.453125 -0.34375q-0.59375 -0.234375 -0.9375 -0.671875q-0.328125 -0.421875 -0.328125 -1.078125q0 -0.53125 0.328125 -0.984375q0.34375 -0.4375 0.953125 -0.75q-0.390625 -0.28125 -0.578125 -0.640625q-0.171875 -0.359375 -0.171875 -0.890625q0 -0.4375 0.171875 -0.8125q0.1875 -0.390625 0.484375 -0.703125q0.3125 -0.3125 0.796875 -0.671875q-0.71875 -0.40625 -1.09375 -1.0625q-0.375 -0.671875 -0.375 -1.5625q0 -0.875 0.3125 -1.484375q0.3125 -0.609375 0.84375 -1.0q0.546875 -0.390625 1.28125 -0.578125q0.75 -0.1875 1.59375 -0.1875q0.484375 0 0.84375 0.046875q0.359375 0.046875 0.703125 0.109375l3.34375 0l0 1.25zm-6.265625 1.734375q0 1.15625 0.328125 1.734375q0.34375 0.5625 1.046875 0.5625q0.640625 0 0.96875 -0.515625q0.34375 -0.53125 0.34375 -1.625q0 -1.140625 -0.328125 -1.734375q-0.328125 -0.59375 -1.0 -0.59375q-0.6875 0 -1.03125 0.53125q-0.328125 0.53125 -0.328125 1.640625zm-0.328125 6.8125q-0.328125 0.265625 -0.5 0.5625q-0.171875 0.3125 -0.171875 0.703125q0 0.671875 0.578125 0.984375q0.578125 0.328125 1.828125 0.328125q1.171875 0 1.78125 -0.390625q0.609375 -0.390625 0.609375 -1.09375q0 -0.3125 -0.125 -0.546875q-0.109375 -0.21875 -0.4375 -0.375q-0.3125 -0.140625 -0.90625 -0.140625l-1.59375 0q-0.6875 0 -1.0625 -0.03125zm15.717239 -2.28125q-0.9375 1.0 -1.875 1.421875q-0.921875 0.421875 -2.125 0.421875q-2.15625 0 -3.25 -1.1875q-1.09375 -1.1875 -1.09375 -3.515625q0 -1.5 0.5625 -2.59375q0.5625 -1.09375 1.59375 -1.65625q1.03125 -0.5625 2.390625 -0.5625q0.84375 0 1.46875 0.203125q0.640625 0.1875 1.09375 0.546875q0.46875 0.34375 0.765625 0.828125q0.34375 0.59375 0.515625 1.34375q0.1875 0.765625 0.203125 1.859375l-5.890625 0q0.015625 1.6875 0.59375 2.484375q0.59375 0.78125 1.8125 0.78125q0.703125 0 1.265625 -0.265625q0.5625 -0.265625 1.21875 -0.921875l0.75 0.8125zm-2.5 -3.890625q-0.03125 -1.421875 -0.375 -2.109375q-0.328125 -0.703125 -1.078125 -0.703125q-0.703125 0 -1.125 0.734375q-0.421875 0.71875 -0.515625 2.078125l3.09375 0zm12.980148 2.875q0 0.703125 0.015625 1.03125q0.03125 0.3125 0.109375 0.515625q0.078125 0.1875 0.265625 0.3125q0.1875 0.125 0.625 0.21875l0 0.625l-2.53125 0.078125l-1.109375 0l0.078125 -1.328125l-0.140625 -0.015625q-0.671875 0.6875 -1.40625 1.0625q-0.734375 0.359375 -1.40625 0.359375q-1.703125 0 -2.546875 -1.15625q-0.828125 -1.171875 -0.828125 -3.5q0 -1.578125 0.5 -2.65625q0.515625 -1.078125 1.515625 -1.640625q1.015625 -0.5625 2.4375 -0.5625q0.40625 0 0.796875 0.0625q0.40625 0.046875 0.9375 0.203125l0 -0.859375q0 -0.984375 -0.03125 -1.390625q-0.03125 -0.421875 -0.125 -0.640625q-0.078125 -0.21875 -0.25 -0.328125q-0.171875 -0.125 -0.640625 -0.21875l0 -0.625l2.5625 -0.125l1.171875 0l0 10.578125zm-2.6875 -3.453125q0 -1.140625 -0.390625 -1.6875q-0.375 -0.546875 -1.15625 -0.546875q-0.578125 0 -1.0 0.421875q-0.40625 0.40625 -0.609375 1.1875q-0.203125 0.78125 -0.203125 1.84375q0 1.828125 0.390625 2.734375q0.40625 0.890625 1.25 0.890625q0.390625 0 0.78125 -0.1875q0.40625 -0.203125 0.671875 -0.609375q0.265625 -0.421875 0.265625 -0.96875l0 -3.078125zm17.936798 3.453125q0 0.703125 0.015625 1.03125q0.03125 0.3125 0.109375 0.515625q0.078125 0.1875 0.265625 0.3125q0.1875 0.125 0.625 0.21875l0 0.625l-2.53125 0.078125l-1.109375 0l0.078125 -1.328125l-0.140625 -0.015625q-0.671875 0.6875 -1.40625 1.0625q-0.734375 0.359375 -1.40625 0.359375q-1.703125 0 -2.546875 -1.15625q-0.828125 -1.171875 -0.828125 -3.5q0 -1.578125 0.5 -2.65625q0.515625 -1.078125 1.515625 -1.640625q1.015625 -0.5625 2.4375 -0.5625q0.40625 0 0.796875 0.0625q0.40625 0.046875 0.9375 0.203125l0 -0.859375q0 -0.984375 -0.03125 -1.390625q-0.03125 -0.421875 -0.125 -0.640625q-0.078125 -0.21875 -0.25 -0.328125q-0.171875 -0.125 -0.640625 -0.21875l0 -0.625l2.5625 -0.125l1.171875 0l0 10.578125zm-2.6875 -3.453125q0 -1.140625 -0.390625 -1.6875q-0.375 -0.546875 -1.15625 -0.546875q-0.578125 0 -1.0 0.421875q-0.40625 0.40625 -0.609375 1.1875q-0.203125 0.78125 -0.203125 1.84375q0 1.828125 0.390625 2.734375q0.40625 0.890625 1.25 0.890625q0.390625 0 0.78125 -0.1875q0.40625 -0.203125 0.671875 -0.609375q0.265625 -0.421875 0.265625 -0.96875l0 -3.078125zm10.34404 4.9375l-0.140625 -0.046875q-0.765625 0.75 -1.484375 1.09375q-0.71875 0.328125 -1.515625 0.328125q-0.796875 0 -1.390625 -0.296875q-0.59375 -0.296875 -0.890625 -0.8125q-0.296875 -0.515625 -0.296875 -1.203125q0 -1.359375 1.328125 -2.140625q1.34375 -0.78125 4.078125 -0.984375l0 -0.890625q0 -0.859375 -0.203125 -1.328125q-0.1875 -0.46875 -0.5 -0.65625q-0.296875 -0.1875 -0.734375 -0.1875q-0.421875 0 -0.734375 0.15625q-0.3125 0.140625 -0.5625 0.546875q-0.25 0.40625 -0.375 1.140625l-1.75 0l0 -1.6875q0.859375 -0.375 1.421875 -0.578125q0.5625 -0.203125 1.109375 -0.328125q0.5625 -0.140625 1.0 -0.203125q0.4375 -0.0625 0.875 -0.0625q1.125 0 1.796875 0.296875q0.671875 0.296875 1.0 0.96875q0.328125 0.671875 0.328125 1.84375l0 3.625q0 0.609375 0.03125 0.953125q0.03125 0.328125 0.09375 0.5q0.0625 0.15625 0.15625 0.25q0.09375 0.09375 0.21875 0.15625q0.140625 0.0625 0.515625 0.15625l0 0.609375l-3.453125 0l0.078125 -1.21875zm-0.3125 -3.15625q-1.4375 0.03125 -2.125 0.53125q-0.6875 0.5 -0.6875 1.46875q0 0.578125 0.3125 0.875q0.3125 0.296875 0.875 0.296875q0.421875 0 0.796875 -0.21875q0.390625 -0.234375 0.609375 -0.609375q0.21875 -0.375 0.21875 -0.8125l0 -1.53125zm11.155884 3.265625q-0.8125 0.6875 -1.484375 0.984375q-0.671875 0.28125 -1.40625 0.28125q-1.390625 0 -2.078125 -0.75q-0.671875 -0.75 -0.671875 -2.265625l0 -5.1875l-1.15625 0l0 -0.640625q0.5625 -0.09375 0.828125 -0.265625q0.28125 -0.1875 0.421875 -0.5q0.15625 -0.3125 0.234375 -0.8125q0.09375 -0.5 0.140625 -1.25l2.21875 0l0 2.3125l2.640625 0l0 1.15625l-2.640625 0l0 4.1875q0 1.046875 0.09375 1.546875q0.09375 0.5 0.328125 0.734375q0.234375 0.234375 0.578125 0.234375q0.265625 0 0.46875 -0.03125q0.203125 -0.046875 0.421875 -0.171875q0.234375 -0.125 0.484375 -0.34375l0.578125 0.78125zm5.954529 -0.109375l-0.140625 -0.046875q-0.765625 0.75 -1.484375 1.09375q-0.71875 0.328125 -1.515625 0.328125q-0.796875 0 -1.390625 -0.296875q-0.59375 -0.296875 -0.890625 -0.8125q-0.296875 -0.515625 -0.296875 -1.203125q0 -1.359375 1.328125 -2.140625q1.34375 -0.78125 4.078125 -0.984375l0 -0.890625q0 -0.859375 -0.203125 -1.328125q-0.1875 -0.46875 -0.5 -0.65625q-0.296875 -0.1875 -0.734375 -0.1875q-0.421875 0 -0.734375 0.15625q-0.3125 0.140625 -0.5625 0.546875q-0.25 0.40625 -0.375 1.140625l-1.75 0l0 -1.6875q0.859375 -0.375 1.421875 -0.578125q0.5625 -0.203125 1.109375 -0.328125q0.5625 -0.140625 1.0 -0.203125q0.4375 -0.0625 0.875 -0.0625q1.125 0 1.796875 0.296875q0.671875 0.296875 1.0 0.96875q0.328125 0.671875 0.328125 1.84375l0 3.625q0 0.609375 0.03125 0.953125q0.03125 0.328125 0.09375 0.5q0.0625 0.15625 0.15625 0.25q0.09375 0.09375 0.21875 0.15625q0.140625 0.0625 0.515625 0.15625l0 0.609375l-3.453125 0l0.078125 -1.21875zm-0.3125 -3.15625q-1.4375 0.03125 -2.125 0.53125q-0.6875 0.5 -0.6875 1.46875q0 0.578125 0.3125 0.875q0.3125 0.296875 0.875 0.296875q0.421875 0 0.796875 -0.21875q0.390625 -0.234375 0.609375 -0.609375q0.21875 -0.375 0.21875 -0.8125l0 -1.53125z" fill-rule="nonzero"></path><path fill="#c27ba0" d="m135.91699 292.1326l-4.484375 0l0 -0.609375q0.421875 -0.109375 0.578125 -0.296875q0.171875 -0.203125 0.234375 -0.546875q0.0625 -0.34375 0.0625 -1.21875l0 -2.484375q0 -0.65625 -0.03125 -1.078125q-0.03125 -0.421875 -0.09375 -0.6875q-0.046875 -0.265625 -0.15625 -0.4375q-0.109375 -0.1875 -0.25 -0.296875q-0.125 -0.125 -0.296875 -0.171875q-0.15625 -0.0625 -0.421875 -0.0625q-0.34375 0 -0.734375 0.21875q-0.375 0.21875 -0.640625 0.609375q-0.25 0.375 -0.25 0.8125l0 3.5625q0 0.890625 0.046875 1.234375q0.0625 0.34375 0.234375 0.546875q0.171875 0.1875 0.609375 0.296875l0 0.609375l-4.484375 0l0 -0.609375q0.453125 -0.125 0.625 -0.3125q0.171875 -0.203125 0.21875 -0.53125q0.0625 -0.34375 0.0625 -1.21875l0 -3.8125q0 -0.6875 -0.03125 -1.015625q-0.015625 -0.328125 -0.109375 -0.53125q-0.078125 -0.203125 -0.265625 -0.328125q-0.171875 -0.125 -0.625 -0.21875l0 -0.625l2.546875 -0.078125l1.171875 0l-0.140625 1.34375l0.109375 0.03125q0.578125 -0.515625 1.015625 -0.8125q0.4375 -0.296875 0.90625 -0.46875q0.484375 -0.171875 1.015625 -0.171875q0.75 0 1.25 0.21875q0.515625 0.21875 0.8125 0.640625q0.3125 0.421875 0.453125 1.03125q0.140625 0.59375 0.140625 1.390625l0 3.390625q0 0.421875 0 0.78125q0.015625 0.34375 0.0625 0.5625q0.0625 0.21875 0.15625 0.359375q0.109375 0.125 0.28125 0.21875q0.171875 0.09375 0.421875 0.15625l0 0.609375zm5.6812134 0.15625q-1.359375 0 -2.359375 -0.484375q-0.984375 -0.484375 -1.546875 -1.53125q-0.546875 -1.046875 -0.546875 -2.671875q0 -1.25 0.34375 -2.15625q0.34375 -0.90625 0.953125 -1.5q0.609375 -0.59375 1.453125 -0.875q0.859375 -0.296875 1.859375 -0.296875q2.234375 0 3.375 1.1875q1.140625 1.1875 1.140625 3.46875q0 1.609375 -0.5625 2.703125q-0.5625 1.09375 -1.609375 1.625q-1.046875 0.53125 -2.5 0.53125zm-1.625 -4.890625q0 1.953125 0.4375 2.9375q0.4375 0.984375 1.328125 0.984375q0.484375 0 0.8125 -0.25q0.34375 -0.25 0.53125 -0.71875q0.203125 -0.484375 0.28125 -1.140625q0.09375 -0.671875 0.09375 -1.5q0 -1.984375 -0.453125 -2.96875q-0.4375 -1.0 -1.296875 -1.0q-0.625 0 -1.015625 0.40625q-0.375 0.390625 -0.546875 1.1875q-0.171875 0.796875 -0.171875 2.0625zm14.090424 3.625q-0.8125 0.6875 -1.484375 0.984375q-0.671875 0.28125 -1.40625 0.28125q-1.390625 0 -2.078125 -0.75q-0.671875 -0.75 -0.671875 -2.265625l0 -5.1875l-1.15625 0l0 -0.640625q0.5625 -0.09375 0.828125 -0.265625q0.28125 -0.1875 0.421875 -0.5q0.15625 -0.3125 0.234375 -0.8125q0.09375 -0.5 0.140625 -1.25l2.21875 0l0 2.3125l2.640625 0l0 1.15625l-2.640625 0l0 4.1875q0 1.046875 0.09375 1.546875q0.09375 0.5 0.328125 0.734375q0.234375 0.234375 0.578125 0.234375q0.265625 0 0.46875 -0.03125q0.203125 -0.046875 0.421875 -0.171875q0.234375 -0.125 0.484375 -0.34375l0.578125 0.78125zm3.9857788 -11.796875l0 2.28125l-2.546875 0l0 -2.28125l2.546875 0zm-3.53125 12.296875q0.46875 -0.125 0.640625 -0.3125q0.171875 -0.203125 0.21875 -0.53125q0.0625 -0.34375 0.0625 -1.21875l0 -4.3125q0 -0.453125 -0.046875 -0.734375q-0.03125 -0.28125 -0.15625 -0.4375q-0.109375 -0.171875 -0.3125 -0.25q-0.1875 -0.09375 -0.515625 -0.171875l0 -0.625l2.5625 -0.078125l1.15625 0l0 6.59375q0 0.53125 0.015625 0.8125q0.015625 0.28125 0.03125 0.4375q0.03125 0.140625 0.078125 0.265625q0.0625 0.125 0.140625 0.234375q0.078125 0.09375 0.234375 0.1875q0.171875 0.078125 0.421875 0.140625l0 0.609375l-4.53125 0l0 -0.609375zm5.866516 0q0.4375 -0.140625 0.609375 -0.296875q0.171875 -0.15625 0.234375 -0.4375q0.078125 -0.28125 0.078125 -0.984375l0 -5.71875l-1.125 0l0 -0.640625q0.4375 -0.0625 0.609375 -0.140625q0.171875 -0.078125 0.28125 -0.203125q0.109375 -0.140625 0.171875 -0.359375q0.0625 -0.21875 0.09375 -0.546875q0.15625 -1.671875 1.234375 -2.53125q1.09375 -0.859375 3.09375 -0.859375q0.796875 0 1.421875 0.140625l0 1.890625l-1.265625 0q-0.15625 -0.515625 -0.359375 -0.75q-0.1875 -0.25 -0.484375 -0.25q-0.40625 0 -0.625 0.265625q-0.203125 0.265625 -0.28125 0.75q-0.078125 0.484375 -0.078125 1.375l0 0.703125l1.78125 0l0 1.15625l-1.78125 0l0 5.71875q0 0.6875 0.0625 0.984375q0.078125 0.28125 0.265625 0.453125q0.203125 0.171875 0.6875 0.28125l0 0.609375l-4.625 0l0 -0.609375zm9.616394 -12.296875l0 2.28125l-2.546875 0l0 -2.28125l2.546875 0zm-3.53125 12.296875q0.46875 -0.125 0.640625 -0.3125q0.171875 -0.203125 0.21875 -0.53125q0.0625 -0.34375 0.0625 -1.21875l0 -4.3125q0 -0.453125 -0.046875 -0.734375q-0.03125 -0.28125 -0.15625 -0.4375q-0.109375 -0.171875 -0.3125 -0.25q-0.1875 -0.09375 -0.515625 -0.171875l0 -0.625l2.5625 -0.078125l1.15625 0l0 6.59375q0 0.53125 0.015625 0.8125q0.015625 0.28125 0.03125 0.4375q0.03125 0.140625 0.078125 0.265625q0.0625 0.125 0.140625 0.234375q0.078125 0.09375 0.234375 0.1875q0.171875 0.078125 0.421875 0.140625l0 0.609375l-4.53125 0l0 -0.609375zm12.960266 -1.765625l0.703125 0.859375q-0.90625 0.890625 -1.765625 1.28125q-0.84375 0.390625 -1.84375 0.390625q-2.015625 0 -3.078125 -1.1875q-1.046875 -1.1875 -1.046875 -3.4375q0 -1.53125 0.578125 -2.625q0.578125 -1.109375 1.65625 -1.6875q1.09375 -0.578125 2.5 -0.578125q0.75 0 1.5 0.109375q0.75 0.109375 1.359375 0.296875l0 2.234375l-1.84375 0q-0.140625 -0.875 -0.421875 -1.265625q-0.265625 -0.40625 -0.796875 -0.40625q-0.34375 0 -0.65625 0.171875q-0.296875 0.171875 -0.546875 0.59375q-0.234375 0.421875 -0.375 1.140625q-0.125 0.703125 -0.125 1.796875q0 1.078125 0.203125 1.828125q0.203125 0.75 0.65625 1.15625q0.453125 0.390625 1.1875 0.390625q0.546875 0 1.015625 -0.21875q0.484375 -0.234375 1.140625 -0.84375zm7.151367 1.15625l-0.140625 -0.046875q-0.765625 0.75 -1.484375 1.09375q-0.71875 0.328125 -1.515625 0.328125q-0.796875 0 -1.390625 -0.296875q-0.59375 -0.296875 -0.890625 -0.8125q-0.296875 -0.515625 -0.296875 -1.203125q0 -1.359375 1.328125 -2.140625q1.34375 -0.78125 4.078125 -0.984375l0 -0.890625q0 -0.859375 -0.203125 -1.328125q-0.1875 -0.46875 -0.5 -0.65625q-0.296875 -0.1875 -0.734375 -0.1875q-0.421875 0 -0.734375 0.15625q-0.3125 0.140625 -0.5625 0.546875q-0.25 0.40625 -0.375 1.140625l-1.75 0l0 -1.6875q0.859375 -0.375 1.421875 -0.578125q0.5625 -0.203125 1.109375 -0.328125q0.5625 -0.140625 1.0 -0.203125q0.4375 -0.0625 0.875 -0.0625q1.125 0 1.796875 0.296875q0.671875 0.296875 1.0 0.96875q0.328125 0.671875 0.328125 1.84375l0 3.625q0 0.609375 0.03125 0.953125q0.03125 0.328125 0.09375 0.5q0.0625 0.15625 0.15625 0.25q0.09375 0.09375 0.21875 0.15625q0.140625 0.0625 0.515625 0.15625l0 0.609375l-3.453125 0l0.078125 -1.21875zm-0.3125 -3.15625q-1.4375 0.03125 -2.125 0.53125q-0.6875 0.5 -0.6875 1.46875q0 0.578125 0.3125 0.875q0.3125 0.296875 0.875 0.296875q0.421875 0 0.796875 -0.21875q0.390625 -0.234375 0.609375 -0.609375q0.21875 -0.375 0.21875 -0.8125l0 -1.53125zm11.155884 3.265625q-0.8125 0.6875 -1.484375 0.984375q-0.671875 0.28125 -1.40625 0.28125q-1.390625 0 -2.078125 -0.75q-0.671875 -0.75 -0.671875 -2.265625l0 -5.1875l-1.15625 0l0 -0.640625q0.5625 -0.09375 0.828125 -0.265625q0.28125 -0.1875 0.421875 -0.5q0.15625 -0.3125 0.234375 -0.8125q0.09375 -0.5 0.140625 -1.25l2.21875 0l0 2.3125l2.640625 0l0 1.15625l-2.640625 0l0 4.1875q0 1.046875 0.09375 1.546875q0.09375 0.5 0.328125 0.734375q0.234375 0.234375 0.578125 0.234375q0.265625 0 0.46875 -0.03125q0.203125 -0.046875 0.421875 -0.171875q0.234375 -0.125 0.484375 -0.34375l0.578125 0.78125zm3.9857788 -11.796875l0 2.28125l-2.546875 0l0 -2.28125l2.546875 0zm-3.53125 12.296875q0.46875 -0.125 0.640625 -0.3125q0.171875 -0.203125 0.21875 -0.53125q0.0625 -0.34375 0.0625 -1.21875l0 -4.3125q0 -0.453125 -0.046875 -0.734375q-0.03125 -0.28125 -0.15625 -0.4375q-0.109375 -0.171875 -0.3125 -0.25q-0.1875 -0.09375 -0.515625 -0.171875l0 -0.625l2.5625 -0.078125l1.15625 0l0 6.59375q0 0.53125 0.015625 0.8125q0.015625 0.28125 0.03125 0.4375q0.03125 0.140625 0.078125 0.265625q0.0625 0.125 0.140625 0.234375q0.078125 0.09375 0.234375 0.1875q0.171875 0.078125 0.421875 0.140625l0 0.609375l-4.53125 0l0 -0.609375zm10.382141 0.765625q-1.359375 0 -2.359375 -0.484375q-0.984375 -0.484375 -1.546875 -1.53125q-0.546875 -1.046875 -0.546875 -2.671875q0 -1.25 0.34375 -2.15625q0.34375 -0.90625 0.953125 -1.5q0.609375 -0.59375 1.453125 -0.875q0.859375 -0.296875 1.859375 -0.296875q2.234375 0 3.375 1.1875q1.140625 1.1875 1.140625 3.46875q0 1.609375 -0.5625 2.703125q-0.5625 1.09375 -1.609375 1.625q-1.046875 0.53125 -2.5 0.53125zm-1.625 -4.890625q0 1.953125 0.4375 2.9375q0.4375 0.984375 1.328125 0.984375q0.484375 0 0.8125 -0.25q0.34375 -0.25 0.53125 -0.71875q0.203125 -0.484375 0.28125 -1.140625q0.09375 -0.671875 0.09375 -1.5q0 -1.984375 -0.453125 -2.96875q-0.4375 -1.0 -1.296875 -1.0q-0.625 0 -1.015625 0.40625q-0.375 0.390625 -0.546875 1.1875q-0.171875 0.796875 -0.171875 2.0625zm17.824799 4.734375l-4.484375 0l0 -0.609375q0.421875 -0.109375 0.578125 -0.296875q0.171875 -0.203125 0.234375 -0.546875q0.0625 -0.34375 0.0625 -1.21875l0 -2.484375q0 -0.65625 -0.03125 -1.078125q-0.03125 -0.421875 -0.09375 -0.6875q-0.046875 -0.265625 -0.15625 -0.4375q-0.109375 -0.1875 -0.25 -0.296875q-0.125 -0.125 -0.296875 -0.171875q-0.15625 -0.0625 -0.421875 -0.0625q-0.34375 0 -0.734375 0.21875q-0.375 0.21875 -0.640625 0.609375q-0.25 0.375 -0.25 0.8125l0 3.5625q0 0.890625 0.046875 1.234375q0.0625 0.34375 0.234375 0.546875q0.171875 0.1875 0.609375 0.296875l0 0.609375l-4.484375 0l0 -0.609375q0.453125 -0.125 0.625 -0.3125q0.171875 -0.203125 0.21875 -0.53125q0.0625 -0.34375 0.0625 -1.21875l0 -3.8125q0 -0.6875 -0.03125 -1.015625q-0.015625 -0.328125 -0.109375 -0.53125q-0.078125 -0.203125 -0.265625 -0.328125q-0.171875 -0.125 -0.625 -0.21875l0 -0.625l2.546875 -0.078125l1.171875 0l-0.140625 1.34375l0.109375 0.03125q0.578125 -0.515625 1.015625 -0.8125q0.4375 -0.296875 0.90625 -0.46875q0.484375 -0.171875 1.015625 -0.171875q0.75 0 1.25 0.21875q0.515625 0.21875 0.8125 0.640625q0.3125 0.421875 0.453125 1.03125q0.140625 0.59375 0.140625 1.390625l0 3.390625q0 0.421875 0 0.78125q0.015625 0.34375 0.0625 0.5625q0.0625 0.21875 0.15625 0.359375q0.109375 0.125 0.28125 0.21875q0.171875 0.09375 0.421875 0.15625l0 0.609375zm2.3843384 -2.5q0.21875 0.84375 0.703125 1.265625q0.484375 0.421875 1.28125 0.421875q0.703125 0 1.0625 -0.3125q0.359375 -0.328125 0.359375 -0.921875q0 -0.390625 -0.171875 -0.65625q-0.15625 -0.265625 -0.53125 -0.5q-0.375 -0.25 -1.28125 -0.65625q-0.515625 -0.21875 -0.96875 -0.484375q-0.453125 -0.28125 -0.78125 -0.609375q-0.328125 -0.34375 -0.53125 -0.75q-0.1875 -0.421875 -0.1875 -0.9375q0 -0.84375 0.46875 -1.453125q0.484375 -0.609375 1.375 -0.9375q0.90625 -0.328125 2.0625 -0.328125q0.671875 0 1.3125 0.0625q0.65625 0.0625 1.6875 0.234375l0 2.171875l-1.21875 0q-0.21875 -0.59375 -0.484375 -0.921875q-0.25 -0.328125 -0.5625 -0.453125q-0.296875 -0.125 -0.71875 -0.125q-0.609375 0 -0.984375 0.28125q-0.359375 0.28125 -0.359375 0.78125q0 0.34375 0.125 0.609375q0.140625 0.25 0.46875 0.484375q0.34375 0.234375 1.296875 0.625q0.875 0.375 1.421875 0.765625q0.546875 0.390625 0.828125 0.90625q0.28125 0.515625 0.28125 1.203125q0 0.75 -0.28125 1.296875q-0.265625 0.53125 -0.765625 0.890625q-0.5 0.359375 -1.203125 0.53125q-0.703125 0.171875 -1.546875 0.171875q-1.53125 0 -3.40625 -0.4375l0 -2.21875l1.25 0z" fill-rule="nonzero"></path><path fill="#000000" fill-opacity="0.0" d="m372.25198 254.12599l106.42517 0l0 45.417313l-106.42517 0z" fill-rule="nonzero"></path><path fill="#c27ba0" d="m391.87698 268.71786l0 2.640625l-1.265625 0q-0.21875 -0.78125 -0.5 -1.203125q-0.265625 -0.421875 -0.703125 -0.625q-0.421875 -0.21875 -1.109375 -0.21875q-0.921875 0 -1.625 0.5625q-0.703125 0.5625 -1.109375 1.796875q-0.40625 1.234375 -0.40625 3.109375q0 1.625 0.265625 2.828125q0.28125 1.1875 0.84375 1.84375q0.5625 0.65625 1.390625 0.65625q0.8125 0 1.203125 -0.484375q0.390625 -0.484375 0.390625 -1.5625l0 -0.34375q0 -0.703125 -0.046875 -1.0q-0.046875 -0.3125 -0.15625 -0.453125q-0.09375 -0.15625 -0.25 -0.25q-0.15625 -0.09375 -0.546875 -0.203125l0 -0.625l4.75 0l0 0.625q-0.46875 0.125 -0.640625 0.3125q-0.15625 0.171875 -0.21875 0.46875q-0.0625 0.28125 -0.0625 0.8125l0 3.5l-1.34375 0.28125l-0.625 -0.671875q-1.109375 0.6875 -2.53125 0.6875q-2.703125 0 -4.046875 -1.578125q-1.328125 -1.59375 -1.328125 -4.796875q0 -1.6875 0.46875 -2.96875q0.484375 -1.28125 1.3125 -2.078125q0.84375 -0.8125 1.890625 -1.171875q1.0625 -0.375 2.265625 -0.375q2.03125 0 3.734375 0.484375zm10.623474 10.640625q-0.9375 1.0 -1.875 1.421875q-0.921875 0.421875 -2.125 0.421875q-2.15625 0 -3.25 -1.1875q-1.09375 -1.1875 -1.09375 -3.515625q0 -1.5 0.5625 -2.59375q0.5625 -1.09375 1.59375 -1.65625q1.03125 -0.5625 2.390625 -0.5625q0.84375 0 1.46875 0.203125q0.640625 0.1875 1.09375 0.546875q0.46875 0.34375 0.765625 0.828125q0.34375 0.59375 0.515625 1.34375q0.1875 0.765625 0.203125 1.859375l-5.890625 0q0.015625 1.6875 0.59375 2.484375q0.59375 0.78125 1.8125 0.78125q0.703125 0 1.265625 -0.265625q0.5625 -0.265625 1.21875 -0.921875l0.75 0.8125zm-2.5 -3.890625q-0.03125 -1.421875 -0.375 -2.109375q-0.328125 -0.703125 -1.078125 -0.703125q-0.703125 0 -1.125 0.734375q-0.421875 0.71875 -0.515625 2.078125l3.09375 0zm10.355133 4.46875q-0.8125 0.6875 -1.484375 0.984375q-0.671875 0.28125 -1.40625 0.28125q-1.390625 0 -2.078125 -0.75q-0.671875 -0.75 -0.671875 -2.265625l0 -5.1875l-1.15625 0l0 -0.640625q0.5625 -0.09375 0.828125 -0.265625q0.28125 -0.1875 0.421875 -0.5q0.15625 -0.3125 0.234375 -0.8125q0.09375 -0.5 0.140625 -1.25l2.21875 0l0 2.3125l2.640625 0l0 1.15625l-2.640625 0l0 4.1875q0 1.046875 0.09375 1.546875q0.09375 0.5 0.328125 0.734375q0.234375 0.234375 0.578125 0.234375q0.265625 0 0.46875 -0.03125q0.203125 -0.046875 0.421875 -0.171875q0.234375 -0.125 0.484375 -0.34375l0.578125 0.78125zm13.547302 -1.59375q0 0.703125 0.015625 1.03125q0.03125 0.3125 0.109375 0.515625q0.078125 0.1875 0.265625 0.3125q0.1875 0.125 0.625 0.21875l0 0.625l-2.53125 0.078125l-1.109375 0l0.078125 -1.328125l-0.140625 -0.015625q-0.671875 0.6875 -1.40625 1.0625q-0.734375 0.359375 -1.40625 0.359375q-1.703125 0 -2.546875 -1.15625q-0.828125 -1.171875 -0.828125 -3.5q0 -1.578125 0.5 -2.65625q0.515625 -1.078125 1.515625 -1.640625q1.015625 -0.5625 2.4375 -0.5625q0.40625 0 0.796875 0.0625q0.40625 0.046875 0.9375 0.203125l0 -0.859375q0 -0.984375 -0.03125 -1.390625q-0.03125 -0.421875 -0.125 -0.640625q-0.078125 -0.21875 -0.25 -0.328125q-0.171875 -0.125 -0.640625 -0.21875l0 -0.625l2.5625 -0.125l1.171875 0l0 10.578125zm-2.6875 -3.453125q0 -1.140625 -0.390625 -1.6875q-0.375 -0.546875 -1.15625 -0.546875q-0.578125 0 -1.0 0.421875q-0.40625 0.40625 -0.609375 1.1875q-0.203125 0.78125 -0.203125 1.84375q0 1.828125 0.390625 2.734375q0.40625 0.890625 1.25 0.890625q0.390625 0 0.78125 -0.1875q0.40625 -0.203125 0.671875 -0.609375q0.265625 -0.421875 0.265625 -0.96875l0 -3.078125zm10.344025 4.9375l-0.140625 -0.046875q-0.765625 0.75 -1.484375 1.09375q-0.71875 0.328125 -1.515625 0.328125q-0.796875 0 -1.390625 -0.296875q-0.59375 -0.296875 -0.890625 -0.8125q-0.296875 -0.515625 -0.296875 -1.203125q0 -1.359375 1.328125 -2.140625q1.34375 -0.78125 4.078125 -0.984375l0 -0.890625q0 -0.859375 -0.203125 -1.328125q-0.1875 -0.46875 -0.5 -0.65625q-0.296875 -0.1875 -0.734375 -0.1875q-0.421875 0 -0.734375 0.15625q-0.3125 0.140625 -0.5625 0.546875q-0.25 0.40625 -0.375 1.140625l-1.75 0l0 -1.6875q0.859375 -0.375 1.421875 -0.578125q0.5625 -0.203125 1.109375 -0.328125q0.5625 -0.140625 1.0 -0.203125q0.4375 -0.0625 0.875 -0.0625q1.125 0 1.796875 0.296875q0.671875 0.296875 1.0 0.96875q0.328125 0.671875 0.328125 1.84375l0 3.625q0 0.609375 0.03125 0.953125q0.03125 0.328125 0.09375 0.5q0.0625 0.15625 0.15625 0.25q0.09375 0.09375 0.21875 0.15625q0.140625 0.0625 0.515625 0.15625l0 0.609375l-3.453125 0l0.078125 -1.21875zm-0.3125 -3.15625q-1.4375 0.03125 -2.125 0.53125q-0.6875 0.5 -0.6875 1.46875q0 0.578125 0.3125 0.875q0.3125 0.296875 0.875 0.296875q0.421875 0 0.796875 -0.21875q0.390625 -0.234375 0.609375 -0.609375q0.21875 -0.375 0.21875 -0.8125l0 -1.53125zm11.155884 3.265625q-0.8125 0.6875 -1.484375 0.984375q-0.671875 0.28125 -1.40625 0.28125q-1.390625 0 -2.078125 -0.75q-0.671875 -0.75 -0.671875 -2.265625l0 -5.1875l-1.15625 0l0 -0.640625q0.5625 -0.09375 0.828125 -0.265625q0.28125 -0.1875 0.421875 -0.5q0.15625 -0.3125 0.234375 -0.8125q0.09375 -0.5 0.140625 -1.25l2.21875 0l0 2.3125l2.640625 0l0 1.15625l-2.640625 0l0 4.1875q0 1.046875 0.09375 1.546875q0.09375 0.5 0.328125 0.734375q0.234375 0.234375 0.578125 0.234375q0.265625 0 0.46875 -0.03125q0.203125 -0.046875 0.421875 -0.171875q0.234375 -0.125 0.484375 -0.34375l0.578125 0.78125zm5.954529 -0.109375l-0.140625 -0.046875q-0.765625 0.75 -1.484375 1.09375q-0.71875 0.328125 -1.515625 0.328125q-0.796875 0 -1.390625 -0.296875q-0.59375 -0.296875 -0.890625 -0.8125q-0.296875 -0.515625 -0.296875 -1.203125q0 -1.359375 1.328125 -2.140625q1.34375 -0.78125 4.078125 -0.984375l0 -0.890625q0 -0.859375 -0.203125 -1.328125q-0.1875 -0.46875 -0.5 -0.65625q-0.296875 -0.1875 -0.734375 -0.1875q-0.421875 0 -0.734375 0.15625q-0.3125 0.140625 -0.5625 0.546875q-0.25 0.40625 -0.375 1.140625l-1.75 0l0 -1.6875q0.859375 -0.375 1.421875 -0.578125q0.5625 -0.203125 1.109375 -0.328125q0.5625 -0.140625 1.0 -0.203125q0.4375 -0.0625 0.875 -0.0625q1.125 0 1.796875 0.296875q0.671875 0.296875 1.0 0.96875q0.328125 0.671875 0.328125 1.84375l0 3.625q0 0.609375 0.03125 0.953125q0.03125 0.328125 0.09375 0.5q0.0625 0.15625 0.15625 0.25q0.09375 0.09375 0.21875 0.15625q0.140625 0.0625 0.515625 0.15625l0 0.609375l-3.453125 0l0.078125 -1.21875zm-0.3125 -3.15625q-1.4375 0.03125 -2.125 0.53125q-0.6875 0.5 -0.6875 1.46875q0 0.578125 0.3125 0.875q0.3125 0.296875 0.875 0.296875q0.421875 0 0.796875 -0.21875q0.390625 -0.234375 0.609375 -0.609375q0.21875 -0.375 0.21875 -0.8125l0 -1.53125z" fill-rule="nonzero"></path><path fill="#000000" fill-opacity="0.0" d="m541.97375 243.2126l139.77954 0l0 67.244095l-139.77954 0z" fill-rule="nonzero"></path><path fill="#c27ba0" d="m560.03625 259.80447q0 -0.703125 -0.0625 -0.96875q-0.0625 -0.28125 -0.234375 -0.4375q-0.171875 -0.171875 -0.6875 -0.3125l0 -0.609375l4.078125 0l0 0.609375q-0.328125 0.09375 -0.53125 0.203125q-0.1875 0.09375 -0.296875 0.296875q-0.09375 0.1875 -0.125 0.484375q-0.03125 0.28125 -0.03125 0.734375l0 5.796875q0 1.140625 -0.1875 1.921875q-0.171875 0.765625 -0.5625 1.296875q-0.390625 0.53125 -0.96875 0.859375q-0.578125 0.328125 -1.3125 0.46875q-0.71875 0.140625 -1.625 0.140625q-1.3125 0 -2.21875 -0.28125q-0.90625 -0.28125 -1.484375 -0.828125q-0.5625 -0.546875 -0.84375 -1.328125q-0.265625 -0.796875 -0.265625 -2.046875l0 -6.0q0 -0.4375 -0.03125 -0.734375q-0.015625 -0.296875 -0.125 -0.484375q-0.09375 -0.1875 -0.296875 -0.296875q-0.1875 -0.109375 -0.546875 -0.203125l0 -0.609375l4.875 0l0 0.609375q-0.375 0.09375 -0.5625 0.21875q-0.1875 0.109375 -0.28125 0.28125q-0.09375 0.15625 -0.125 0.4375q-0.03125 0.265625 -0.03125 0.78125l0 6.125q0 0.734375 0.09375 1.34375q0.09375 0.59375 0.328125 1.03125q0.25 0.421875 0.6875 0.65625q0.4375 0.234375 1.125 0.234375q0.9375 0 1.40625 -0.375q0.46875 -0.390625 0.65625 -1.0625q0.1875 -0.6875 0.1875 -2.046875l0 -5.90625zm8.319763 8.0q0 0.328125 0.015625 0.609375q0.015625 0.265625 0.0625 0.453125q0.0625 0.171875 0.171875 0.296875q0.109375 0.109375 0.296875 0.203125q0.1875 0.09375 0.453125 0.15625l0 0.609375l-4.875 0l0 -0.609375q0.34375 -0.09375 0.546875 -0.203125q0.203125 -0.109375 0.296875 -0.296875q0.09375 -0.1875 0.125 -0.484375q0.03125 -0.296875 0.03125 -0.734375l0 -8.0q0 -0.453125 -0.03125 -0.734375q-0.015625 -0.296875 -0.125 -0.484375q-0.09375 -0.1875 -0.296875 -0.296875q-0.1875 -0.109375 -0.546875 -0.203125l0 -0.609375l4.875 0l0 0.609375q-0.390625 0.09375 -0.578125 0.21875q-0.171875 0.109375 -0.265625 0.28125q-0.09375 0.15625 -0.125 0.4375q-0.03125 0.265625 -0.03125 0.78125l0 8.0zm15.052673 0.640625q-0.9375 1.0 -1.875 1.421875q-0.921875 0.421875 -2.125 0.421875q-2.15625 0 -3.25 -1.1875q-1.09375 -1.1875 -1.09375 -3.515625q0 -1.5 0.5625 -2.59375q0.5625 -1.09375 1.59375 -1.65625q1.03125 -0.5625 2.390625 -0.5625q0.84375 0 1.46875 0.203125q0.640625 0.1875 1.09375 0.546875q0.46875 0.34375 0.765625 0.828125q0.34375 0.59375 0.515625 1.34375q0.1875 0.765625 0.203125 1.859375l-5.890625 0q0.015625 1.6875 0.59375 2.484375q0.59375 0.78125 1.8125 0.78125q0.703125 0 1.265625 -0.265625q0.5625 -0.265625 1.21875 -0.921875l0.75 0.8125zm-2.5 -3.890625q-0.03125 -1.421875 -0.375 -2.109375q-0.328125 -0.703125 -1.078125 -0.703125q-0.703125 0 -1.125 0.734375q-0.421875 0.71875 -0.515625 2.078125l3.09375 0zm8.027039 -3.625l0 0.609375q-0.4375 0.09375 -0.640625 0.265625q-0.203125 0.15625 -0.203125 0.484375q0 0.453125 0.234375 1.15625l1.328125 4.0625l1.484375 -3.546875q0.1875 -0.453125 0.28125 -0.78125q0.09375 -0.34375 0.09375 -0.671875q0 -0.390625 -0.234375 -0.640625q-0.21875 -0.265625 -0.625 -0.328125l0 -0.609375l3.609375 0l0 0.625q-0.265625 0.078125 -0.4375 0.203125q-0.15625 0.125 -0.296875 0.3125q-0.140625 0.1875 -0.359375 0.578125q-0.203125 0.390625 -0.546875 1.171875l-2.890625 6.40625l-1.765625 0l-2.4375 -7.0625q-0.25 -0.734375 -0.421875 -1.0q-0.15625 -0.28125 -0.34375 -0.421875q-0.1875 -0.140625 -0.46875 -0.203125l0 -0.609375l4.640625 0zm14.276978 7.515625q-0.9375 1.0 -1.875 1.421875q-0.921875 0.421875 -2.125 0.421875q-2.15625 0 -3.25 -1.1875q-1.09375 -1.1875 -1.09375 -3.515625q0 -1.5 0.5625 -2.59375q0.5625 -1.09375 1.59375 -1.65625q1.03125 -0.5625 2.390625 -0.5625q0.84375 0 1.46875 0.203125q0.640625 0.1875 1.09375 0.546875q0.46875 0.34375 0.765625 0.828125q0.34375 0.59375 0.515625 1.34375q0.1875 0.765625 0.203125 1.859375l-5.890625 0q0.015625 1.6875 0.59375 2.484375q0.59375 0.78125 1.8125 0.78125q0.703125 0 1.265625 -0.265625q0.5625 -0.265625 1.21875 -0.921875l0.75 0.8125zm-2.5 -3.890625q-0.03125 -1.421875 -0.375 -2.109375q-0.328125 -0.703125 -1.078125 -0.703125q-0.703125 0 -1.125 0.734375q-0.421875 0.71875 -0.515625 2.078125l3.09375 0zm14.089539 5.578125l-4.484375 0l0 -0.609375q0.421875 -0.109375 0.578125 -0.296875q0.171875 -0.203125 0.234375 -0.546875q0.0625 -0.34375 0.0625 -1.21875l0 -2.484375q0 -0.65625 -0.03125 -1.078125q-0.03125 -0.421875 -0.09375 -0.6875q-0.046875 -0.265625 -0.15625 -0.4375q-0.109375 -0.1875 -0.25 -0.296875q-0.125 -0.125 -0.296875 -0.171875q-0.15625 -0.0625 -0.421875 -0.0625q-0.34375 0 -0.734375 0.21875q-0.375 0.21875 -0.640625 0.609375q-0.25 0.375 -0.25 0.8125l0 3.5625q0 0.890625 0.046875 1.234375q0.0625 0.34375 0.234375 0.546875q0.171875 0.1875 0.609375 0.296875l0 0.609375l-4.484375 0l0 -0.609375q0.453125 -0.125 0.625 -0.3125q0.171875 -0.203125 0.21875 -0.53125q0.0625 -0.34375 0.0625 -1.21875l0 -3.8125q0 -0.6875 -0.03125 -1.015625q-0.015625 -0.328125 -0.109375 -0.53125q-0.078125 -0.203125 -0.265625 -0.328125q-0.171875 -0.125 -0.625 -0.21875l0 -0.625l2.546875 -0.078125l1.171875 0l-0.140625 1.34375l0.109375 0.03125q0.578125 -0.515625 1.015625 -0.8125q0.4375 -0.296875 0.90625 -0.46875q0.484375 -0.171875 1.015625 -0.171875q0.75 0 1.25 0.21875q0.515625 0.21875 0.8125 0.640625q0.3125 0.421875 0.453125 1.03125q0.140625 0.59375 0.140625 1.390625l0 3.390625q0 0.421875 0 0.78125q0.015625 0.34375 0.0625 0.5625q0.0625 0.21875 0.15625 0.359375q0.109375 0.125 0.28125 0.21875q0.171875 0.09375 0.421875 0.15625l0 0.609375zm7.5249634 -1.109375q-0.8125 0.6875 -1.484375 0.984375q-0.671875 0.28125 -1.40625 0.28125q-1.390625 0 -2.078125 -0.75q-0.671875 -0.75 -0.671875 -2.265625l0 -5.1875l-1.15625 0l0 -0.640625q0.5625 -0.09375 0.828125 -0.265625q0.28125 -0.1875 0.421875 -0.5q0.15625 -0.3125 0.234375 -0.8125q0.09375 -0.5 0.140625 -1.25l2.21875 0l0 2.3125l2.640625 0l0 1.15625l-2.640625 0l0 4.1875q0 1.046875 0.09375 1.546875q0.09375 0.5 0.328125 0.734375q0.234375 0.234375 0.578125 0.234375q0.265625 0 0.46875 -0.03125q0.203125 -0.046875 0.421875 -0.171875q0.234375 -0.125 0.484375 -0.34375l0.578125 0.78125zm1.6732788 -1.390625q0.21875 0.84375 0.703125 1.265625q0.484375 0.421875 1.28125 0.421875q0.703125 0 1.0625 -0.3125q0.359375 -0.328125 0.359375 -0.921875q0 -0.390625 -0.171875 -0.65625q-0.15625 -0.265625 -0.53125 -0.5q-0.375 -0.25 -1.28125 -0.65625q-0.515625 -0.21875 -0.96875 -0.484375q-0.453125 -0.28125 -0.78125 -0.609375q-0.328125 -0.34375 -0.53125 -0.75q-0.1875 -0.421875 -0.1875 -0.9375q0 -0.84375 0.46875 -1.453125q0.484375 -0.609375 1.375 -0.9375q0.90625 -0.328125 2.0625 -0.328125q0.671875 0 1.3125 0.0625q0.65625 0.0625 1.6875 0.234375l0 2.171875l-1.21875 0q-0.21875 -0.59375 -0.484375 -0.921875q-0.25 -0.328125 -0.5625 -0.453125q-0.296875 -0.125 -0.71875 -0.125q-0.609375 0 -0.984375 0.28125q-0.359375 0.28125 -0.359375 0.78125q0 0.34375 0.125 0.609375q0.140625 0.25 0.46875 0.484375q0.34375 0.234375 1.296875 0.625q0.875 0.375 1.421875 0.765625q0.546875 0.390625 0.828125 0.90625q0.28125 0.515625 0.28125 1.203125q0 0.75 -0.28125 1.296875q-0.265625 0.53125 -0.765625 0.890625q-0.5 0.359375 -1.203125 0.53125q-0.703125 0.171875 -1.546875 0.171875q-1.53125 0 -3.40625 -0.4375l0 -2.21875l1.25 0z" fill-rule="nonzero"></path><path fill="#c27ba0" d="m561.84875 292.1326l-4.484375 0l0 -0.609375q0.421875 -0.109375 0.578125 -0.296875q0.171875 -0.203125 0.234375 -0.546875q0.0625 -0.34375 0.0625 -1.21875l0 -2.484375q0 -0.65625 -0.03125 -1.078125q-0.03125 -0.421875 -0.09375 -0.6875q-0.046875 -0.265625 -0.15625 -0.4375q-0.109375 -0.1875 -0.25 -0.296875q-0.125 -0.125 -0.296875 -0.171875q-0.15625 -0.0625 -0.421875 -0.0625q-0.34375 0 -0.734375 0.21875q-0.375 0.21875 -0.640625 0.609375q-0.25 0.375 -0.25 0.8125l0 3.5625q0 0.890625 0.046875 1.234375q0.0625 0.34375 0.234375 0.546875q0.171875 0.1875 0.609375 0.296875l0 0.609375l-4.484375 0l0 -0.609375q0.453125 -0.125 0.625 -0.3125q0.171875 -0.203125 0.21875 -0.53125q0.0625 -0.34375 0.0625 -1.21875l0 -3.8125q0 -0.6875 -0.03125 -1.015625q-0.015625 -0.328125 -0.109375 -0.53125q-0.078125 -0.203125 -0.265625 -0.328125q-0.171875 -0.125 -0.625 -0.21875l0 -0.625l2.546875 -0.078125l1.171875 0l-0.140625 1.34375l0.109375 0.03125q0.578125 -0.515625 1.015625 -0.8125q0.4375 -0.296875 0.90625 -0.46875q0.484375 -0.171875 1.015625 -0.171875q0.75 0 1.25 0.21875q0.515625 0.21875 0.8125 0.640625q0.3125 0.421875 0.453125 1.03125q0.140625 0.59375 0.140625 1.390625l0 3.390625q0 0.421875 0 0.78125q0.015625 0.34375 0.0625 0.5625q0.0625 0.21875 0.15625 0.359375q0.109375 0.125 0.28125 0.21875q0.171875 0.09375 0.421875 0.15625l0 0.609375zm5.6812134 0.15625q-1.359375 0 -2.359375 -0.484375q-0.984375 -0.484375 -1.546875 -1.53125q-0.546875 -1.046875 -0.546875 -2.671875q0 -1.25 0.34375 -2.15625q0.34375 -0.90625 0.953125 -1.5q0.609375 -0.59375 1.453125 -0.875q0.859375 -0.296875 1.859375 -0.296875q2.234375 0 3.375 1.1875q1.140625 1.1875 1.140625 3.46875q0 1.609375 -0.5625 2.703125q-0.5625 1.09375 -1.609375 1.625q-1.046875 0.53125 -2.5 0.53125zm-1.625 -4.890625q0 1.953125 0.4375 2.9375q0.4375 0.984375 1.328125 0.984375q0.484375 0 0.8125 -0.25q0.34375 -0.25 0.53125 -0.71875q0.203125 -0.484375 0.28125 -1.140625q0.09375 -0.671875 0.09375 -1.5q0 -1.984375 -0.453125 -2.96875q-0.4375 -1.0 -1.296875 -1.0q-0.625 0 -1.015625 0.40625q-0.375 0.390625 -0.546875 1.1875q-0.171875 0.796875 -0.171875 2.0625zm14.090393 3.625q-0.8125 0.6875 -1.484375 0.984375q-0.671875 0.28125 -1.40625 0.28125q-1.390625 0 -2.078125 -0.75q-0.671875 -0.75 -0.671875 -2.265625l0 -5.1875l-1.15625 0l0 -0.640625q0.5625 -0.09375 0.828125 -0.265625q0.28125 -0.1875 0.421875 -0.5q0.15625 -0.3125 0.234375 -0.8125q0.09375 -0.5 0.140625 -1.25l2.21875 0l0 2.3125l2.640625 0l0 1.15625l-2.640625 0l0 4.1875q0 1.046875 0.09375 1.546875q0.09375 0.5 0.328125 0.734375q0.234375 0.234375 0.578125 0.234375q0.265625 0 0.46875 -0.03125q0.203125 -0.046875 0.421875 -0.171875q0.234375 -0.125 0.484375 -0.34375l0.578125 0.78125zm3.9857788 -11.796875l0 2.28125l-2.546875 0l0 -2.28125l2.546875 0zm-3.53125 12.296875q0.46875 -0.125 0.640625 -0.3125q0.171875 -0.203125 0.21875 -0.53125q0.0625 -0.34375 0.0625 -1.21875l0 -4.3125q0 -0.453125 -0.046875 -0.734375q-0.03125 -0.28125 -0.15625 -0.4375q-0.109375 -0.171875 -0.3125 -0.25q-0.1875 -0.09375 -0.515625 -0.171875l0 -0.625l2.5625 -0.078125l1.15625 0l0 6.59375q0 0.53125 0.015625 0.8125q0.015625 0.28125 0.03125 0.4375q0.03125 0.140625 0.078125 0.265625q0.0625 0.125 0.140625 0.234375q0.078125 0.09375 0.234375 0.1875q0.171875 0.078125 0.421875 0.140625l0 0.609375l-4.53125 0l0 -0.609375zm5.866516 0q0.4375 -0.140625 0.609375 -0.296875q0.171875 -0.15625 0.234375 -0.4375q0.078125 -0.28125 0.078125 -0.984375l0 -5.71875l-1.125 0l0 -0.640625q0.4375 -0.0625 0.609375 -0.140625q0.171875 -0.078125 0.28125 -0.203125q0.109375 -0.140625 0.171875 -0.359375q0.0625 -0.21875 0.09375 -0.546875q0.15625 -1.671875 1.234375 -2.53125q1.09375 -0.859375 3.09375 -0.859375q0.796875 0 1.421875 0.140625l0 1.890625l-1.265625 0q-0.15625 -0.515625 -0.359375 -0.75q-0.1875 -0.25 -0.484375 -0.25q-0.40625 0 -0.625 0.265625q-0.203125 0.265625 -0.28125 0.75q-0.078125 0.484375 -0.078125 1.375l0 0.703125l1.78125 0l0 1.15625l-1.78125 0l0 5.71875q0 0.6875 0.0625 0.984375q0.078125 0.28125 0.265625 0.453125q0.203125 0.171875 0.6875 0.28125l0 0.609375l-4.625 0l0 -0.609375zm9.616394 -12.296875l0 2.28125l-2.546875 0l0 -2.28125l2.546875 0zm-3.53125 12.296875q0.46875 -0.125 0.640625 -0.3125q0.171875 -0.203125 0.21875 -0.53125q0.0625 -0.34375 0.0625 -1.21875l0 -4.3125q0 -0.453125 -0.046875 -0.734375q-0.03125 -0.28125 -0.15625 -0.4375q-0.109375 -0.171875 -0.3125 -0.25q-0.1875 -0.09375 -0.515625 -0.171875l0 -0.625l2.5625 -0.078125l1.15625 0l0 6.59375q0 0.53125 0.015625 0.8125q0.015625 0.28125 0.03125 0.4375q0.03125 0.140625 0.078125 0.265625q0.0625 0.125 0.140625 0.234375q0.078125 0.09375 0.234375 0.1875q0.171875 0.078125 0.421875 0.140625l0 0.609375l-4.53125 0l0 -0.609375zm12.960266 -1.765625l0.703125 0.859375q-0.90625 0.890625 -1.765625 1.28125q-0.84375 0.390625 -1.84375 0.390625q-2.015625 0 -3.078125 -1.1875q-1.046875 -1.1875 -1.046875 -3.4375q0 -1.53125 0.578125 -2.625q0.578125 -1.109375 1.65625 -1.6875q1.09375 -0.578125 2.5 -0.578125q0.75 0 1.5 0.109375q0.75 0.109375 1.359375 0.296875l0 2.234375l-1.84375 0q-0.140625 -0.875 -0.421875 -1.265625q-0.265625 -0.40625 -0.796875 -0.40625q-0.34375 0 -0.65625 0.171875q-0.296875 0.171875 -0.546875 0.59375q-0.234375 0.421875 -0.375 1.140625q-0.125 0.703125 -0.125 1.796875q0 1.078125 0.203125 1.828125q0.203125 0.75 0.65625 1.15625q0.453125 0.390625 1.1875 0.390625q0.546875 0 1.015625 -0.21875q0.484375 -0.234375 1.140625 -0.84375zm7.151367 1.15625l-0.140625 -0.046875q-0.765625 0.75 -1.484375 1.09375q-0.71875 0.328125 -1.515625 0.328125q-0.796875 0 -1.390625 -0.296875q-0.59375 -0.296875 -0.890625 -0.8125q-0.296875 -0.515625 -0.296875 -1.203125q0 -1.359375 1.328125 -2.140625q1.34375 -0.78125 4.078125 -0.984375l0 -0.890625q0 -0.859375 -0.203125 -1.328125q-0.1875 -0.46875 -0.5 -0.65625q-0.296875 -0.1875 -0.734375 -0.1875q-0.421875 0 -0.734375 0.15625q-0.3125 0.140625 -0.5625 0.546875q-0.25 0.40625 -0.375 1.140625l-1.75 0l0 -1.6875q0.859375 -0.375 1.421875 -0.578125q0.5625 -0.203125 1.109375 -0.328125q0.5625 -0.140625 1.0 -0.203125q0.4375 -0.0625 0.875 -0.0625q1.125 0 1.796875 0.296875q0.671875 0.296875 1.0 0.96875q0.328125 0.671875 0.328125 1.84375l0 3.625q0 0.609375 0.03125 0.953125q0.03125 0.328125 0.09375 0.5q0.0625 0.15625 0.15625 0.25q0.09375 0.09375 0.21875 0.15625q0.140625 0.0625 0.515625 0.15625l0 0.609375l-3.453125 0l0.078125 -1.21875zm-0.3125 -3.15625q-1.4375 0.03125 -2.125 0.53125q-0.6875 0.5 -0.6875 1.46875q0 0.578125 0.3125 0.875q0.3125 0.296875 0.875 0.296875q0.421875 0 0.796875 -0.21875q0.390625 -0.234375 0.609375 -0.609375q0.21875 -0.375 0.21875 -0.8125l0 -1.53125zm11.155884 3.265625q-0.8125 0.6875 -1.484375 0.984375q-0.671875 0.28125 -1.40625 0.28125q-1.390625 0 -2.078125 -0.75q-0.671875 -0.75 -0.671875 -2.265625l0 -5.1875l-1.15625 0l0 -0.640625q0.5625 -0.09375 0.828125 -0.265625q0.28125 -0.1875 0.421875 -0.5q0.15625 -0.3125 0.234375 -0.8125q0.09375 -0.5 0.140625 -1.25l2.21875 0l0 2.3125l2.640625 0l0 1.15625l-2.640625 0l0 4.1875q0 1.046875 0.09375 1.546875q0.09375 0.5 0.328125 0.734375q0.234375 0.234375 0.578125 0.234375q0.265625 0 0.46875 -0.03125q0.203125 -0.046875 0.421875 -0.171875q0.234375 -0.125 0.484375 -0.34375l0.578125 0.78125zm3.9857788 -11.796875l0 2.28125l-2.546875 0l0 -2.28125l2.546875 0zm-3.53125 12.296875q0.46875 -0.125 0.640625 -0.3125q0.171875 -0.203125 0.21875 -0.53125q0.0625 -0.34375 0.0625 -1.21875l0 -4.3125q0 -0.453125 -0.046875 -0.734375q-0.03125 -0.28125 -0.15625 -0.4375q-0.109375 -0.171875 -0.3125 -0.25q-0.1875 -0.09375 -0.515625 -0.171875l0 -0.625l2.5625 -0.078125l1.15625 0l0 6.59375q0 0.53125 0.015625 0.8125q0.015625 0.28125 0.03125 0.4375q0.03125 0.140625 0.078125 0.265625q0.0625 0.125 0.140625 0.234375q0.078125 0.09375 0.234375 0.1875q0.171875 0.078125 0.421875 0.140625l0 0.609375l-4.53125 0l0 -0.609375zm10.382141 0.765625q-1.359375 0 -2.359375 -0.484375q-0.984375 -0.484375 -1.546875 -1.53125q-0.546875 -1.046875 -0.546875 -2.671875q0 -1.25 0.34375 -2.15625q0.34375 -0.90625 0.953125 -1.5q0.609375 -0.59375 1.453125 -0.875q0.859375 -0.296875 1.859375 -0.296875q2.234375 0 3.375 1.1875q1.140625 1.1875 1.140625 3.46875q0 1.609375 -0.5625 2.703125q-0.5625 1.09375 -1.609375 1.625q-1.046875 0.53125 -2.5 0.53125zm-1.625 -4.890625q0 1.953125 0.4375 2.9375q0.4375 0.984375 1.328125 0.984375q0.484375 0 0.8125 -0.25q0.34375 -0.25 0.53125 -0.71875q0.203125 -0.484375 0.28125 -1.140625q0.09375 -0.671875 0.09375 -1.5q0 -1.984375 -0.453125 -2.96875q-0.4375 -1.0 -1.296875 -1.0q-0.625 0 -1.015625 0.40625q-0.375 0.390625 -0.546875 1.1875q-0.171875 0.796875 -0.171875 2.0625zm17.82483 4.734375l-4.484375 0l0 -0.609375q0.421875 -0.109375 0.578125 -0.296875q0.171875 -0.203125 0.234375 -0.546875q0.0625 -0.34375 0.0625 -1.21875l0 -2.484375q0 -0.65625 -0.03125 -1.078125q-0.03125 -0.421875 -0.09375 -0.6875q-0.046875 -0.265625 -0.15625 -0.4375q-0.109375 -0.1875 -0.25 -0.296875q-0.125 -0.125 -0.296875 -0.171875q-0.15625 -0.0625 -0.421875 -0.0625q-0.34375 0 -0.734375 0.21875q-0.375 0.21875 -0.640625 0.609375q-0.25 0.375 -0.25 0.8125l0 3.5625q0 0.890625 0.046875 1.234375q0.0625 0.34375 0.234375 0.546875q0.171875 0.1875 0.609375 0.296875l0 0.609375l-4.484375 0l0 -0.609375q0.453125 -0.125 0.625 -0.3125q0.171875 -0.203125 0.21875 -0.53125q0.0625 -0.34375 0.0625 -1.21875l0 -3.8125q0 -0.6875 -0.03125 -1.015625q-0.015625 -0.328125 -0.109375 -0.53125q-0.078125 -0.203125 -0.265625 -0.328125q-0.171875 -0.125 -0.625 -0.21875l0 -0.625l2.546875 -0.078125l1.171875 0l-0.140625 1.34375l0.109375 0.03125q0.578125 -0.515625 1.015625 -0.8125q0.4375 -0.296875 0.90625 -0.46875q0.484375 -0.171875 1.015625 -0.171875q0.75 0 1.25 0.21875q0.515625 0.21875 0.8125 0.640625q0.3125 0.421875 0.453125 1.03125q0.140625 0.59375 0.140625 1.390625l0 3.390625q0 0.421875 0 0.78125q0.015625 0.34375 0.0625 0.5625q0.0625 0.21875 0.15625 0.359375q0.109375 0.125 0.28125 0.21875q0.171875 0.09375 0.421875 0.15625l0 0.609375zm2.3843384 -2.5q0.21875 0.84375 0.703125 1.265625q0.484375 0.421875 1.28125 0.421875q0.703125 0 1.0625 -0.3125q0.359375 -0.328125 0.359375 -0.921875q0 -0.390625 -0.171875 -0.65625q-0.15625 -0.265625 -0.53125 -0.5q-0.375 -0.25 -1.28125 -0.65625q-0.515625 -0.21875 -0.96875 -0.484375q-0.453125 -0.28125 -0.78125 -0.609375q-0.328125 -0.34375 -0.53125 -0.75q-0.1875 -0.421875 -0.1875 -0.9375q0 -0.84375 0.46875 -1.453125q0.484375 -0.609375 1.375 -0.9375q0.90625 -0.328125 2.0625 -0.328125q0.671875 0 1.3125 0.0625q0.65625 0.0625 1.6875 0.234375l0 2.171875l-1.21875 0q-0.21875 -0.59375 -0.484375 -0.921875q-0.25 -0.328125 -0.5625 -0.453125q-0.296875 -0.125 -0.71875 -0.125q-0.609375 0 -0.984375 0.28125q-0.359375 0.28125 -0.359375 0.78125q0 0.34375 0.125 0.609375q0.140625 0.25 0.46875 0.484375q0.34375 0.234375 1.296875 0.625q0.875 0.375 1.421875 0.765625q0.546875 0.390625 0.828125 0.90625q0.28125 0.515625 0.28125 1.203125q0 0.75 -0.28125 1.296875q-0.265625 0.53125 -0.765625 0.890625q-0.5 0.359375 -1.203125 0.53125q-0.703125 0.171875 -1.546875 0.171875q-1.53125 0 -3.40625 -0.4375l0 -2.21875l1.25 0z" fill-rule="nonzero"></path><path fill="#000000" fill-opacity="0.0" d="m610.6352 484.50394l2.456665 -74.96063" fill-rule="nonzero"></path><path stroke="#000000" stroke-width="4.0" stroke-linejoin="round" stroke-linecap="butt" d="m610.6352 484.50394l1.6705322 -50.97351" fill-rule="evenodd"></path><path fill="#000000" stroke="#000000" stroke-width="4.0" stroke-linecap="butt" d="m618.9091 433.74683l-6.008789 -18.35904l-7.197998 17.926239z" fill-rule="evenodd"></path><path fill="#000000" fill-opacity="0.0" d="m251.2126 409.5433l121.03938 0l0 45.417328l-121.03938 0z" fill-rule="nonzero"></path><path fill="#c27ba0" d="m270.8376 424.1352l0 2.640625l-1.265625 0q-0.21875 -0.78125 -0.5 -1.203125q-0.265625 -0.421875 -0.703125 -0.625q-0.421875 -0.21875 -1.109375 -0.21875q-0.921875 0 -1.625 0.5625q-0.703125 0.5625 -1.109375 1.796875q-0.40625 1.234375 -0.40625 3.109375q0 1.625 0.265625 2.828125q0.28125 1.1875 0.84375 1.84375q0.5625 0.65625 1.390625 0.65625q0.8125 0 1.203125 -0.484375q0.390625 -0.484375 0.390625 -1.5625l0 -0.34375q0 -0.703125 -0.046875 -1.0q-0.046875 -0.3125 -0.15625 -0.453125q-0.09375 -0.15625 -0.25 -0.25q-0.15625 -0.09375 -0.546875 -0.203125l0 -0.625l4.75 0l0 0.625q-0.46875 0.125 -0.640625 0.3125q-0.15625 0.171875 -0.21875 0.46875q-0.0625 0.28125 -0.0625 0.8125l0 3.5l-1.34375 0.28125l-0.625 -0.671875q-1.109375 0.6875 -2.53125 0.6875q-2.703125 0 -4.046875 -1.578125q-1.328125 -1.59375 -1.328125 -4.796875q0 -1.6875 0.46875 -2.96875q0.484375 -1.28125 1.3125 -2.078125q0.84375 -0.8125 1.890625 -1.171875q1.0625 -0.375 2.265625 -0.375q2.03125 0 3.734375 0.484375zm10.623474 10.640625q-0.9375 1.0 -1.875 1.421875q-0.921875 0.421875 -2.125 0.421875q-2.15625 0 -3.25 -1.1875q-1.09375 -1.1875 -1.09375 -3.515625q0 -1.5 0.5625 -2.59375q0.5625 -1.09375 1.59375 -1.65625q1.03125 -0.5625 2.390625 -0.5625q0.84375 0 1.46875 0.203125q0.640625 0.1875 1.09375 0.546875q0.46875 0.34375 0.765625 0.828125q0.34375 0.59375 0.515625 1.34375q0.1875 0.765625 0.203125 1.859375l-5.890625 0q0.015625 1.6875 0.59375 2.484375q0.59375 0.78125 1.8125 0.78125q0.703125 0 1.265625 -0.265625q0.5625 -0.265625 1.21875 -0.921875l0.75 0.8125zm-2.5 -3.890625q-0.03125 -1.421875 -0.375 -2.109375q-0.328125 -0.703125 -1.078125 -0.703125q-0.703125 0 -1.125 0.734375q-0.421875 0.71875 -0.515625 2.078125l3.09375 0zm10.355164 4.46875q-0.8125 0.6875 -1.484375 0.984375q-0.671875 0.28125 -1.40625 0.28125q-1.390625 0 -2.078125 -0.75q-0.671875 -0.75 -0.671875 -2.265625l0 -5.1875l-1.15625 0l0 -0.640625q0.5625 -0.09375 0.828125 -0.265625q0.28125 -0.1875 0.421875 -0.5q0.15625 -0.3125 0.234375 -0.8125q0.09375 -0.5 0.140625 -1.25l2.21875 0l0 2.3125l2.640625 0l0 1.15625l-2.640625 0l0 4.1875q0 1.046875 0.09375 1.546875q0.09375 0.5 0.328125 0.734375q0.234375 0.234375 0.578125 0.234375q0.265625 0 0.46875 -0.03125q0.203125 -0.046875 0.421875 -0.171875q0.234375 -0.125 0.484375 -0.34375l0.578125 0.78125zm8.031647 -6.828125l0.109375 0.03125q0.84375 -0.796875 1.515625 -1.125q0.6875 -0.328125 1.390625 -0.328125q0.6875 0 1.140625 0.1875q0.453125 0.171875 0.765625 0.515625q0.3125 0.328125 0.515625 0.875q0.9375 -0.859375 1.625 -1.21875q0.6875 -0.359375 1.4375 -0.359375q0.75 0 1.234375 0.203125q0.484375 0.1875 0.796875 0.609375q0.328125 0.40625 0.46875 1.015625q0.140625 0.609375 0.140625 1.46875l0 3.375q0 0.421875 0.015625 0.78125q0.015625 0.34375 0.0625 0.5625q0.0625 0.21875 0.15625 0.359375q0.09375 0.125 0.265625 0.21875q0.1875 0.09375 0.4375 0.15625l0 0.609375l-4.46875 0l0 -0.609375q0.421875 -0.109375 0.578125 -0.296875q0.15625 -0.203125 0.203125 -0.546875q0.0625 -0.34375 0.0625 -1.21875l0 -2.484375q0 -0.84375 -0.0625 -1.359375q-0.046875 -0.53125 -0.203125 -0.828125q-0.15625 -0.296875 -0.375 -0.421875q-0.21875 -0.125 -0.5625 -0.125q-0.25 0 -0.453125 0.078125q-0.203125 0.0625 -0.421875 0.21875q-0.203125 0.15625 -0.359375 0.3125q-0.140625 0.15625 -0.234375 0.359375q-0.078125 0.1875 -0.109375 0.4375q-0.03125 0.234375 -0.03125 0.78125l0 3.015625q0 0.640625 0.015625 0.984375q0.03125 0.328125 0.09375 0.53125q0.078125 0.203125 0.234375 0.34375q0.171875 0.125 0.515625 0.21875l0 0.609375l-4.40625 0l0 -0.609375q0.421875 -0.109375 0.578125 -0.296875q0.171875 -0.203125 0.21875 -0.53125q0.0625 -0.34375 0.0625 -1.234375l0 -2.484375q0 -0.609375 -0.03125 -1.03125q-0.015625 -0.421875 -0.078125 -0.6875q-0.046875 -0.265625 -0.15625 -0.453125q-0.09375 -0.203125 -0.21875 -0.3125q-0.125 -0.125 -0.296875 -0.1875q-0.171875 -0.0625 -0.421875 -0.0625q-0.34375 0 -0.71875 0.21875q-0.375 0.203125 -0.640625 0.59375q-0.25 0.375 -0.25 0.8125l0 3.578125q0 0.875 0.046875 1.234375q0.046875 0.34375 0.21875 0.546875q0.171875 0.1875 0.578125 0.296875l0 0.609375l-4.4375 0l0 -0.609375q0.453125 -0.125 0.625 -0.3125q0.171875 -0.203125 0.21875 -0.53125q0.0625 -0.34375 0.0625 -1.21875l0 -3.8125q0 -0.6875 -0.03125 -1.015625q-0.015625 -0.328125 -0.109375 -0.53125q-0.078125 -0.203125 -0.265625 -0.328125q-0.171875 -0.125 -0.625 -0.21875l0 -0.625l2.546875 -0.078125l1.171875 0l-0.140625 1.34375zm17.653503 8.09375q-1.359375 0 -2.359375 -0.484375q-0.984375 -0.484375 -1.546875 -1.53125q-0.546875 -1.046875 -0.546875 -2.671875q0 -1.25 0.34375 -2.15625q0.34375 -0.90625 0.953125 -1.5q0.609375 -0.59375 1.453125 -0.875q0.859375 -0.296875 1.859375 -0.296875q2.234375 0 3.375 1.1875q1.140625 1.1875 1.140625 3.46875q0 1.609375 -0.5625 2.703125q-0.5625 1.09375 -1.609375 1.625q-1.046875 0.53125 -2.5 0.53125zm-1.625 -4.890625q0 1.953125 0.4375 2.9375q0.4375 0.984375 1.328125 0.984375q0.484375 0 0.8125 -0.25q0.34375 -0.25 0.53125 -0.71875q0.203125 -0.484375 0.28125 -1.140625q0.09375 -0.671875 0.09375 -1.5q0 -1.984375 -0.453125 -2.96875q-0.4375 -1.0 -1.296875 -1.0q-0.625 0 -1.015625 0.40625q-0.375 0.390625 -0.546875 1.1875q-0.171875 0.796875 -0.171875 2.0625zm16.715424 2.03125q0 0.703125 0.015625 1.03125q0.03125 0.3125 0.109375 0.515625q0.078125 0.1875 0.265625 0.3125q0.1875 0.125 0.625 0.21875l0 0.625l-2.53125 0.078125l-1.109375 0l0.078125 -1.328125l-0.140625 -0.015625q-0.671875 0.6875 -1.40625 1.0625q-0.734375 0.359375 -1.40625 0.359375q-1.703125 0 -2.546875 -1.15625q-0.828125 -1.171875 -0.828125 -3.5q0 -1.578125 0.5 -2.65625q0.515625 -1.078125 1.515625 -1.640625q1.015625 -0.5625 2.4375 -0.5625q0.40625 0 0.796875 0.0625q0.40625 0.046875 0.9375 0.203125l0 -0.859375q0 -0.984375 -0.03125 -1.390625q-0.03125 -0.421875 -0.125 -0.640625q-0.078125 -0.21875 -0.25 -0.328125q-0.171875 -0.125 -0.640625 -0.21875l0 -0.625l2.5625 -0.125l1.171875 0l0 10.578125zm-2.6875 -3.453125q0 -1.140625 -0.390625 -1.6875q-0.375 -0.546875 -1.15625 -0.546875q-0.578125 0 -1.0 0.421875q-0.40625 0.40625 -0.609375 1.1875q-0.203125 0.78125 -0.203125 1.84375q0 1.828125 0.390625 2.734375q0.40625 0.890625 1.25 0.890625q0.390625 0 0.78125 -0.1875q0.40625 -0.203125 0.671875 -0.609375q0.265625 -0.421875 0.265625 -0.96875l0 -3.078125zm13.250275 4.46875q-0.9375 1.0 -1.875 1.421875q-0.921875 0.421875 -2.125 0.421875q-2.15625 0 -3.25 -1.1875q-1.09375 -1.1875 -1.09375 -3.515625q0 -1.5 0.5625 -2.59375q0.5625 -1.09375 1.59375 -1.65625q1.03125 -0.5625 2.390625 -0.5625q0.84375 0 1.46875 0.203125q0.640625 0.1875 1.09375 0.546875q0.46875 0.34375 0.765625 0.828125q0.34375 0.59375 0.515625 1.34375q0.1875 0.765625 0.203125 1.859375l-5.890625 0q0.015625 1.6875 0.59375 2.484375q0.59375 0.78125 1.8125 0.78125q0.703125 0 1.265625 -0.265625q0.5625 -0.265625 1.21875 -0.921875l0.75 0.8125zm-2.5 -3.890625q-0.03125 -1.421875 -0.375 -2.109375q-0.328125 -0.703125 -1.078125 -0.703125q-0.703125 0 -1.125 0.734375q-0.421875 0.71875 -0.515625 2.078125l3.09375 0zm7.4801636 2.890625q0 0.890625 0.046875 1.234375q0.0625 0.328125 0.234375 0.53125q0.171875 0.1875 0.65625 0.3125l0 0.609375l-4.546875 0l0 -0.609375q0.265625 -0.0625 0.421875 -0.15625q0.171875 -0.09375 0.25 -0.203125q0.09375 -0.109375 0.15625 -0.296875q0.0625 -0.1875 0.078125 -0.5q0.03125 -0.328125 0.03125 -0.921875l0 -7.234375q0 -0.796875 -0.015625 -1.171875q-0.015625 -0.375 -0.0625 -0.625q-0.046875 -0.265625 -0.140625 -0.40625q-0.09375 -0.15625 -0.28125 -0.25q-0.171875 -0.09375 -0.5625 -0.171875l0 -0.609375l2.578125 -0.125l1.15625 0l0 10.59375z" fill-rule="nonzero"></path><path fill="#c27ba0" d="m269.9782 455.7602q0 0.703125 0.015625 1.03125q0.03125 0.3125 0.109375 0.515625q0.078125 0.1875 0.265625 0.3125q0.1875 0.125 0.625 0.21875l0 0.625l-2.53125 0.078125l-1.109375 0l0.078125 -1.328125l-0.140625 -0.015625q-0.671875 0.6875 -1.40625 1.0625q-0.734375 0.359375 -1.40625 0.359375q-1.703125 0 -2.546875 -1.15625q-0.828125 -1.171875 -0.828125 -3.5q0 -1.578125 0.5 -2.65625q0.515625 -1.078125 1.515625 -1.640625q1.015625 -0.5625 2.4375 -0.5625q0.40625 0 0.796875 0.0625q0.40625 0.046875 0.9375 0.203125l0 -0.859375q0 -0.984375 -0.03125 -1.390625q-0.03125 -0.421875 -0.125 -0.640625q-0.078125 -0.21875 -0.25 -0.328125q-0.171875 -0.125 -0.640625 -0.21875l0 -0.625l2.5625 -0.125l1.171875 0l0 10.578125zm-2.6875 -3.453125q0 -1.140625 -0.390625 -1.6875q-0.375 -0.546875 -1.15625 -0.546875q-0.578125 0 -1.0 0.421875q-0.40625 0.40625 -0.609375 1.1875q-0.203125 0.78125 -0.203125 1.84375q0 1.828125 0.390625 2.734375q0.40625 0.890625 1.25 0.890625q0.390625 0 0.78125 -0.1875q0.40625 -0.203125 0.671875 -0.609375q0.265625 -0.421875 0.265625 -0.96875l0 -3.078125zm10.344055 4.9375l-0.140625 -0.046875q-0.765625 0.75 -1.484375 1.09375q-0.71875 0.328125 -1.515625 0.328125q-0.796875 0 -1.390625 -0.296875q-0.59375 -0.296875 -0.890625 -0.8125q-0.296875 -0.515625 -0.296875 -1.203125q0 -1.359375 1.328125 -2.140625q1.34375 -0.78125 4.078125 -0.984375l0 -0.890625q0 -0.859375 -0.203125 -1.328125q-0.1875 -0.46875 -0.5 -0.65625q-0.296875 -0.1875 -0.734375 -0.1875q-0.421875 0 -0.734375 0.15625q-0.3125 0.140625 -0.5625 0.546875q-0.25 0.40625 -0.375 1.140625l-1.75 0l0 -1.6875q0.859375 -0.375 1.421875 -0.578125q0.5625 -0.203125 1.109375 -0.328125q0.5625 -0.140625 1.0 -0.203125q0.4375 -0.0625 0.875 -0.0625q1.125 0 1.796875 0.296875q0.671875 0.296875 1.0 0.96875q0.328125 0.671875 0.328125 1.84375l0 3.625q0 0.609375 0.03125 0.953125q0.03125 0.328125 0.09375 0.5q0.0625 0.15625 0.15625 0.25q0.09375 0.09375 0.21875 0.15625q0.140625 0.0625 0.515625 0.15625l0 0.609375l-3.453125 0l0.078125 -1.21875zm-0.3125 -3.15625q-1.4375 0.03125 -2.125 0.53125q-0.6875 0.5 -0.6875 1.46875q0 0.578125 0.3125 0.875q0.3125 0.296875 0.875 0.296875q0.421875 0 0.796875 -0.21875q0.390625 -0.234375 0.609375 -0.609375q0.21875 -0.375 0.21875 -0.8125l0 -1.53125zm11.155884 3.265625q-0.8125 0.6875 -1.484375 0.984375q-0.671875 0.28125 -1.40625 0.28125q-1.390625 0 -2.078125 -0.75q-0.671875 -0.75 -0.671875 -2.265625l0 -5.1875l-1.15625 0l0 -0.640625q0.5625 -0.09375 0.828125 -0.265625q0.28125 -0.1875 0.421875 -0.5q0.15625 -0.3125 0.234375 -0.8125q0.09375 -0.5 0.140625 -1.25l2.21875 0l0 2.3125l2.640625 0l0 1.15625l-2.640625 0l0 4.1875q0 1.046875 0.09375 1.546875q0.09375 0.5 0.328125 0.734375q0.234375 0.234375 0.578125 0.234375q0.265625 0 0.46875 -0.03125q0.203125 -0.046875 0.421875 -0.171875q0.234375 -0.125 0.484375 -0.34375l0.578125 0.78125zm5.954529 -0.109375l-0.140625 -0.046875q-0.765625 0.75 -1.484375 1.09375q-0.71875 0.328125 -1.515625 0.328125q-0.796875 0 -1.390625 -0.296875q-0.59375 -0.296875 -0.890625 -0.8125q-0.296875 -0.515625 -0.296875 -1.203125q0 -1.359375 1.328125 -2.140625q1.34375 -0.78125 4.078125 -0.984375l0 -0.890625q0 -0.859375 -0.203125 -1.328125q-0.1875 -0.46875 -0.5 -0.65625q-0.296875 -0.1875 -0.734375 -0.1875q-0.421875 0 -0.734375 0.15625q-0.3125 0.140625 -0.5625 0.546875q-0.25 0.40625 -0.375 1.140625l-1.75 0l0 -1.6875q0.859375 -0.375 1.421875 -0.578125q0.5625 -0.203125 1.109375 -0.328125q0.5625 -0.140625 1.0 -0.203125q0.4375 -0.0625 0.875 -0.0625q1.125 0 1.796875 0.296875q0.671875 0.296875 1.0 0.96875q0.328125 0.671875 0.328125 1.84375l0 3.625q0 0.609375 0.03125 0.953125q0.03125 0.328125 0.09375 0.5q0.0625 0.15625 0.15625 0.25q0.09375 0.09375 0.21875 0.15625q0.140625 0.0625 0.515625 0.15625l0 0.609375l-3.453125 0l0.078125 -1.21875zm-0.3125 -3.15625q-1.4375 0.03125 -2.125 0.53125q-0.6875 0.5 -0.6875 1.46875q0 0.578125 0.3125 0.875q0.3125 0.296875 0.875 0.296875q0.421875 0 0.796875 -0.21875q0.390625 -0.234375 0.609375 -0.609375q0.21875 -0.375 0.21875 -0.8125l0 -1.53125z" fill-rule="nonzero"></path><path fill="#000000" fill-opacity="0.0" d="m460.56693 415.48032l162.20474 0l0 67.24408l-162.20474 0z" fill-rule="nonzero"></path><path fill="#c27ba0" d="m484.7388 430.35342q-0.484375 0.140625 -0.671875 0.296875q-0.171875 0.15625 -0.25 0.4375q-0.0625 0.265625 -0.0625 0.96875l0 8.03125q0 0.5625 0.0625 0.890625q0.0625 0.328125 0.234375 0.5q0.171875 0.171875 0.6875 0.3125l0 0.609375l-4.75 0l0 -0.609375q0.40625 -0.109375 0.5625 -0.1875q0.15625 -0.09375 0.234375 -0.21875q0.09375 -0.140625 0.140625 -0.40625q0.046875 -0.28125 0.046875 -0.921875l0 -4.546875q0 -0.75 0.015625 -1.765625q0.03125 -1.015625 0.0625 -1.453125l-0.1875 0q-0.125 0.375 -0.25 0.734375q-0.125 0.359375 -0.46875 1.28125l-2.484375 6.6875l-1.625 0l-2.625 -7.515625q-0.21875 -0.640625 -0.40625 -1.28125l-0.15625 0q0.09375 1.53125 0.09375 3.625l0 4.265625q0 0.6875 0.0625 0.96875q0.0625 0.265625 0.25 0.4375q0.203125 0.171875 0.6875 0.296875l0 0.609375l-3.515625 0l0 -0.609375q0.34375 -0.09375 0.546875 -0.203125q0.203125 -0.109375 0.296875 -0.296875q0.109375 -0.1875 0.125 -0.46875q0.03125 -0.296875 0.03125 -0.734375l0 -8.03125q0 -0.703125 -0.0625 -0.953125q-0.0625 -0.265625 -0.25 -0.4375q-0.171875 -0.171875 -0.6875 -0.3125l0 -0.609375l4.609375 0l2.578125 7.609375l2.78125 -7.609375l4.34375 0l0 0.609375zm5.9117737 12.203125q-1.359375 0 -2.359375 -0.484375q-0.984375 -0.484375 -1.546875 -1.53125q-0.546875 -1.046875 -0.546875 -2.671875q0 -1.25 0.34375 -2.15625q0.34375 -0.90625 0.953125 -1.5q0.609375 -0.59375 1.453125 -0.875q0.859375 -0.296875 1.859375 -0.296875q2.234375 0 3.375 1.1875q1.140625 1.1875 1.140625 3.46875q0 1.609375 -0.5625 2.703125q-0.5625 1.09375 -1.609375 1.625q-1.046875 0.53125 -2.5 0.53125zm-1.625 -4.890625q0 1.953125 0.4375 2.9375q0.4375 0.984375 1.328125 0.984375q0.484375 0 0.8125 -0.25q0.34375 -0.25 0.53125 -0.71875q0.203125 -0.484375 0.28125 -1.140625q0.09375 -0.671875 0.09375 -1.5q0 -1.984375 -0.453125 -2.96875q-0.4375 -1.0 -1.296875 -1.0q-0.625 0 -1.015625 0.40625q-0.375 0.390625 -0.546875 1.1875q-0.171875 0.796875 -0.171875 2.0625zm16.715424 2.03125q0 0.703125 0.015625 1.03125q0.03125 0.3125 0.109375 0.515625q0.078125 0.1875 0.265625 0.3125q0.1875 0.125 0.625 0.21875l0 0.625l-2.53125 0.078125l-1.109375 0l0.078125 -1.328125l-0.140625 -0.015625q-0.671875 0.6875 -1.40625 1.0625q-0.734375 0.359375 -1.40625 0.359375q-1.703125 0 -2.546875 -1.15625q-0.828125 -1.171875 -0.828125 -3.5q0 -1.578125 0.5 -2.65625q0.515625 -1.078125 1.515625 -1.640625q1.015625 -0.5625 2.4375 -0.5625q0.40625 0 0.796875 0.0625q0.40625 0.046875 0.9375 0.203125l0 -0.859375q0 -0.984375 -0.03125 -1.390625q-0.03125 -0.421875 -0.125 -0.640625q-0.078125 -0.21875 -0.25 -0.328125q-0.171875 -0.125 -0.640625 -0.21875l0 -0.625l2.5625 -0.125l1.171875 0l0 10.578125zm-2.6875 -3.453125q0 -1.140625 -0.390625 -1.6875q-0.375 -0.546875 -1.15625 -0.546875q-0.578125 0 -1.0 0.421875q-0.40625 0.40625 -0.609375 1.1875q-0.203125 0.78125 -0.203125 1.84375q0 1.828125 0.390625 2.734375q0.40625 0.890625 1.25 0.890625q0.390625 0 0.78125 -0.1875q0.40625 -0.203125 0.671875 -0.609375q0.265625 -0.421875 0.265625 -0.96875l0 -3.078125zm13.250275 4.46875q-0.9375 1.0 -1.875 1.421875q-0.921875 0.421875 -2.125 0.421875q-2.15625 0 -3.25 -1.1875q-1.09375 -1.1875 -1.09375 -3.515625q0 -1.5 0.5625 -2.59375q0.5625 -1.09375 1.59375 -1.65625q1.03125 -0.5625 2.390625 -0.5625q0.84375 0 1.46875 0.203125q0.640625 0.1875 1.09375 0.546875q0.46875 0.34375 0.765625 0.828125q0.34375 0.59375 0.515625 1.34375q0.1875 0.765625 0.203125 1.859375l-5.890625 0q0.015625 1.6875 0.59375 2.484375q0.59375 0.78125 1.8125 0.78125q0.703125 0 1.265625 -0.265625q0.5625 -0.265625 1.21875 -0.921875l0.75 0.8125zm-2.5 -3.890625q-0.03125 -1.421875 -0.375 -2.109375q-0.328125 -0.703125 -1.078125 -0.703125q-0.703125 0 -1.125 0.734375q-0.421875 0.71875 -0.515625 2.078125l3.09375 0zm7.4801636 2.890625q0 0.890625 0.046875 1.234375q0.0625 0.328125 0.234375 0.53125q0.171875 0.1875 0.65625 0.3125l0 0.609375l-4.546875 0l0 -0.609375q0.265625 -0.0625 0.421875 -0.15625q0.171875 -0.09375 0.25 -0.203125q0.09375 -0.109375 0.15625 -0.296875q0.0625 -0.1875 0.078125 -0.5q0.03125 -0.328125 0.03125 -0.921875l0 -7.234375q0 -0.796875 -0.015625 -1.171875q-0.015625 -0.375 -0.0625 -0.625q-0.046875 -0.265625 -0.140625 -0.40625q-0.09375 -0.15625 -0.28125 -0.25q-0.171875 -0.09375 -0.5625 -0.171875l0 -0.609375l2.578125 -0.125l1.15625 0l0 10.59375zm15.356445 -0.015625q0 0.703125 0.015625 1.03125q0.03125 0.3125 0.109375 0.515625q0.078125 0.1875 0.265625 0.3125q0.1875 0.125 0.625 0.21875l0 0.625l-2.53125 0.078125l-1.109375 0l0.078125 -1.328125l-0.140625 -0.015625q-0.671875 0.6875 -1.40625 1.0625q-0.734375 0.359375 -1.40625 0.359375q-1.703125 0 -2.546875 -1.15625q-0.828125 -1.171875 -0.828125 -3.5q0 -1.578125 0.5 -2.65625q0.515625 -1.078125 1.515625 -1.640625q1.015625 -0.5625 2.4375 -0.5625q0.40625 0 0.796875 0.0625q0.40625 0.046875 0.9375 0.203125l0 -0.859375q0 -0.984375 -0.03125 -1.390625q-0.03125 -0.421875 -0.125 -0.640625q-0.078125 -0.21875 -0.25 -0.328125q-0.171875 -0.125 -0.640625 -0.21875l0 -0.625l2.5625 -0.125l1.171875 0l0 10.578125zm-2.6875 -3.453125q0 -1.140625 -0.390625 -1.6875q-0.375 -0.546875 -1.15625 -0.546875q-0.578125 0 -1.0 0.421875q-0.40625 0.40625 -0.609375 1.1875q-0.203125 0.78125 -0.203125 1.84375q0 1.828125 0.390625 2.734375q0.40625 0.890625 1.25 0.890625q0.390625 0 0.78125 -0.1875q0.40625 -0.203125 0.671875 -0.609375q0.265625 -0.421875 0.265625 -0.96875l0 -3.078125zm10.344055 4.9375l-0.140625 -0.046875q-0.765625 0.75 -1.484375 1.09375q-0.71875 0.328125 -1.515625 0.328125q-0.796875 0 -1.390625 -0.296875q-0.59375 -0.296875 -0.890625 -0.8125q-0.296875 -0.515625 -0.296875 -1.203125q0 -1.359375 1.328125 -2.140625q1.34375 -0.78125 4.078125 -0.984375l0 -0.890625q0 -0.859375 -0.203125 -1.328125q-0.1875 -0.46875 -0.5 -0.65625q-0.296875 -0.1875 -0.734375 -0.1875q-0.421875 0 -0.734375 0.15625q-0.3125 0.140625 -0.5625 0.546875q-0.25 0.40625 -0.375 1.140625l-1.75 0l0 -1.6875q0.859375 -0.375 1.421875 -0.578125q0.5625 -0.203125 1.109375 -0.328125q0.5625 -0.140625 1.0 -0.203125q0.4375 -0.0625 0.875 -0.0625q1.125 0 1.796875 0.296875q0.671875 0.296875 1.0 0.96875q0.328125 0.671875 0.328125 1.84375l0 3.625q0 0.609375 0.03125 0.953125q0.03125 0.328125 0.09375 0.5q0.0625 0.15625 0.15625 0.25q0.09375 0.09375 0.21875 0.15625q0.140625 0.0625 0.515625 0.15625l0 0.609375l-3.453125 0l0.078125 -1.21875zm-0.3125 -3.15625q-1.4375 0.03125 -2.125 0.53125q-0.6875 0.5 -0.6875 1.46875q0 0.578125 0.3125 0.875q0.3125 0.296875 0.875 0.296875q0.421875 0 0.796875 -0.21875q0.390625 -0.234375 0.609375 -0.609375q0.21875 -0.375 0.21875 -0.8125l0 -1.53125zm11.155884 3.265625q-0.8125 0.6875 -1.484375 0.984375q-0.671875 0.28125 -1.40625 0.28125q-1.390625 0 -2.078125 -0.75q-0.671875 -0.75 -0.671875 -2.265625l0 -5.1875l-1.15625 0l0 -0.640625q0.5625 -0.09375 0.828125 -0.265625q0.28125 -0.1875 0.421875 -0.5q0.15625 -0.3125 0.234375 -0.8125q0.09375 -0.5 0.140625 -1.25l2.21875 0l0 2.3125l2.640625 0l0 1.15625l-2.640625 0l0 4.1875q0 1.046875 0.09375 1.546875q0.09375 0.5 0.328125 0.734375q0.234375 0.234375 0.578125 0.234375q0.265625 0 0.46875 -0.03125q0.203125 -0.046875 0.421875 -0.171875q0.234375 -0.125 0.484375 -0.34375l0.578125 0.78125zm5.954529 -0.109375l-0.140625 -0.046875q-0.765625 0.75 -1.484375 1.09375q-0.71875 0.328125 -1.515625 0.328125q-0.796875 0 -1.390625 -0.296875q-0.59375 -0.296875 -0.890625 -0.8125q-0.296875 -0.515625 -0.296875 -1.203125q0 -1.359375 1.328125 -2.140625q1.34375 -0.78125 4.078125 -0.984375l0 -0.890625q0 -0.859375 -0.203125 -1.328125q-0.1875 -0.46875 -0.5 -0.65625q-0.296875 -0.1875 -0.734375 -0.1875q-0.421875 0 -0.734375 0.15625q-0.3125 0.140625 -0.5625 0.546875q-0.25 0.40625 -0.375 1.140625l-1.75 0l0 -1.6875q0.859375 -0.375 1.421875 -0.578125q0.5625 -0.203125 1.109375 -0.328125q0.5625 -0.140625 1.0 -0.203125q0.4375 -0.0625 0.875 -0.0625q1.125 0 1.796875 0.296875q0.671875 0.296875 1.0 0.96875q0.328125 0.671875 0.328125 1.84375l0 3.625q0 0.609375 0.03125 0.953125q0.03125 0.328125 0.09375 0.5q0.0625 0.15625 0.15625 0.25q0.09375 0.09375 0.21875 0.15625q0.140625 0.0625 0.515625 0.15625l0 0.609375l-3.453125 0l0.078125 -1.21875zm-0.3125 -3.15625q-1.4375 0.03125 -2.125 0.53125q-0.6875 0.5 -0.6875 1.46875q0 0.578125 0.3125 0.875q0.3125 0.296875 0.875 0.296875q0.421875 0 0.796875 -0.21875q0.390625 -0.234375 0.609375 -0.609375q0.21875 -0.375 0.21875 -0.8125l0 -1.53125z" fill-rule="nonzero"></path><path fill="#c27ba0" d="m477.44193 462.0253l0.703125 0.859375q-0.90625 0.890625 -1.765625 1.28125q-0.84375 0.390625 -1.84375 0.390625q-2.015625 0 -3.078125 -1.1875q-1.046875 -1.1875 -1.046875 -3.4375q0 -1.53125 0.578125 -2.625q0.578125 -1.109375 1.65625 -1.6875q1.09375 -0.578125 2.5 -0.578125q0.75 0 1.5 0.109375q0.75 0.109375 1.359375 0.296875l0 2.234375l-1.84375 0q-0.140625 -0.875 -0.421875 -1.265625q-0.265625 -0.40625 -0.796875 -0.40625q-0.34375 0 -0.65625 0.171875q-0.296875 0.171875 -0.546875 0.59375q-0.234375 0.421875 -0.375 1.140625q-0.125 0.703125 -0.125 1.796875q0 1.078125 0.203125 1.828125q0.203125 0.75 0.65625 1.15625q0.453125 0.390625 1.1875 0.390625q0.546875 0 1.015625 -0.21875q0.484375 -0.234375 1.140625 -0.84375zm5.182617 -5.609375q0.84375 -0.75 1.5 -1.0625q0.65625 -0.3125 1.359375 -0.3125q1.015625 0 1.578125 0.390625q0.5625 0.375 0.8125 1.078125q0.25 0.703125 0.25 1.828125l0 3.375q0 0.421875 0.015625 0.78125q0.015625 0.34375 0.0625 0.5625q0.0625 0.21875 0.15625 0.359375q0.109375 0.125 0.28125 0.21875q0.171875 0.09375 0.421875 0.15625l0 0.609375l-4.5 0l0 -0.609375q0.4375 -0.109375 0.59375 -0.296875q0.171875 -0.203125 0.234375 -0.546875q0.0625 -0.34375 0.0625 -1.21875l0 -2.421875q0 -0.921875 -0.0625 -1.4375q-0.0625 -0.515625 -0.21875 -0.796875q-0.140625 -0.28125 -0.375 -0.421875q-0.21875 -0.140625 -0.578125 -0.140625q-0.359375 0 -0.75 0.21875q-0.375 0.21875 -0.640625 0.59375q-0.25 0.375 -0.25 0.796875l0 3.59375q0 0.53125 0.015625 0.8125q0.015625 0.28125 0.03125 0.4375q0.03125 0.140625 0.078125 0.265625q0.0625 0.125 0.140625 0.234375q0.09375 0.09375 0.25 0.1875q0.15625 0.078125 0.421875 0.140625l0 0.609375l-4.546875 0l0 -0.609375q0.265625 -0.0625 0.421875 -0.15625q0.171875 -0.09375 0.25 -0.203125q0.09375 -0.109375 0.15625 -0.296875q0.0625 -0.1875 0.078125 -0.5q0.03125 -0.328125 0.03125 -0.921875l0 -7.234375q0 -0.796875 -0.015625 -1.171875q-0.015625 -0.375 -0.0625 -0.625q-0.046875 -0.265625 -0.140625 -0.40625q-0.09375 -0.15625 -0.28125 -0.25q-0.171875 -0.09375 -0.5625 -0.171875l0 -0.609375l2.578125 -0.125l1.15625 0l0 5.296875l0.046875 0zm13.100555 6.765625l-0.140625 -0.046875q-0.765625 0.75 -1.484375 1.09375q-0.71875 0.328125 -1.515625 0.328125q-0.796875 0 -1.390625 -0.296875q-0.59375 -0.296875 -0.890625 -0.8125q-0.296875 -0.515625 -0.296875 -1.203125q0 -1.359375 1.328125 -2.140625q1.34375 -0.78125 4.078125 -0.984375l0 -0.890625q0 -0.859375 -0.203125 -1.328125q-0.1875 -0.46875 -0.5 -0.65625q-0.296875 -0.1875 -0.734375 -0.1875q-0.421875 0 -0.734375 0.15625q-0.3125 0.140625 -0.5625 0.546875q-0.25 0.40625 -0.375 1.140625l-1.75 0l0 -1.6875q0.859375 -0.375 1.421875 -0.578125q0.5625 -0.203125 1.109375 -0.328125q0.5625 -0.140625 1.0 -0.203125q0.4375 -0.0625 0.875 -0.0625q1.125 0 1.796875 0.296875q0.671875 0.296875 1.0 0.96875q0.328125 0.671875 0.328125 1.84375l0 3.625q0 0.609375 0.03125 0.953125q0.03125 0.328125 0.09375 0.5q0.0625 0.15625 0.15625 0.25q0.09375 0.09375 0.21875 0.15625q0.140625 0.0625 0.515625 0.15625l0 0.609375l-3.453125 0l0.078125 -1.21875zm-0.3125 -3.15625q-1.4375 0.03125 -2.125 0.53125q-0.6875 0.5 -0.6875 1.46875q0 0.578125 0.3125 0.875q0.3125 0.296875 0.875 0.296875q0.421875 0 0.796875 -0.21875q0.390625 -0.234375 0.609375 -0.609375q0.21875 -0.375 0.21875 -0.8125l0 -1.53125zm14.890259 4.375l-4.484375 0l0 -0.609375q0.421875 -0.109375 0.578125 -0.296875q0.171875 -0.203125 0.234375 -0.546875q0.0625 -0.34375 0.0625 -1.21875l0 -2.484375q0 -0.65625 -0.03125 -1.078125q-0.03125 -0.421875 -0.09375 -0.6875q-0.046875 -0.265625 -0.15625 -0.4375q-0.109375 -0.1875 -0.25 -0.296875q-0.125 -0.125 -0.296875 -0.171875q-0.15625 -0.0625 -0.421875 -0.0625q-0.34375 0 -0.734375 0.21875q-0.375 0.21875 -0.640625 0.609375q-0.25 0.375 -0.25 0.8125l0 3.5625q0 0.890625 0.046875 1.234375q0.0625 0.34375 0.234375 0.546875q0.171875 0.1875 0.609375 0.296875l0 0.609375l-4.484375 0l0 -0.609375q0.453125 -0.125 0.625 -0.3125q0.171875 -0.203125 0.21875 -0.53125q0.0625 -0.34375 0.0625 -1.21875l0 -3.8125q0 -0.6875 -0.03125 -1.015625q-0.015625 -0.328125 -0.109375 -0.53125q-0.078125 -0.203125 -0.265625 -0.328125q-0.171875 -0.125 -0.625 -0.21875l0 -0.625l2.546875 -0.078125l1.171875 0l-0.140625 1.34375l0.109375 0.03125q0.578125 -0.515625 1.015625 -0.8125q0.4375 -0.296875 0.90625 -0.46875q0.484375 -0.171875 1.015625 -0.171875q0.75 0 1.25 0.21875q0.515625 0.21875 0.8125 0.640625q0.3125 0.421875 0.453125 1.03125q0.140625 0.59375 0.140625 1.390625l0 3.390625q0 0.421875 0 0.78125q0.015625 0.34375 0.0625 0.5625q0.0625 0.21875 0.15625 0.359375q0.109375 0.125 0.28125 0.21875q0.171875 0.09375 0.421875 0.15625l0 0.609375zm10.149963 -7.953125l-1.578125 -0.1875l-0.046875 0.109375q0.265625 0.25 0.4375 0.703125q0.171875 0.453125 0.171875 1.078125q0 1.625 -0.984375 2.46875q-0.96875 0.828125 -2.875 0.828125q-0.921875 0 -1.5 -0.171875q-0.46875 0.421875 -0.46875 0.890625q0 0.28125 0.109375 0.4375q0.125 0.140625 0.40625 0.21875q0.28125 0.078125 0.78125 0.078125l2.296875 0q1.5625 0 2.328125 0.609375q0.765625 0.609375 0.765625 1.875q0 0.984375 -0.5625 1.703125q-0.5625 0.71875 -1.609375 1.09375q-1.046875 0.375 -2.484375 0.375q-1.046875 0 -1.90625 -0.09375q-0.84375 -0.09375 -1.453125 -0.34375q-0.59375 -0.234375 -0.9375 -0.671875q-0.328125 -0.421875 -0.328125 -1.078125q0 -0.53125 0.328125 -0.984375q0.34375 -0.4375 0.953125 -0.75q-0.390625 -0.28125 -0.578125 -0.640625q-0.171875 -0.359375 -0.171875 -0.890625q0 -0.4375 0.171875 -0.8125q0.1875 -0.390625 0.484375 -0.703125q0.3125 -0.3125 0.796875 -0.671875q-0.71875 -0.40625 -1.09375 -1.0625q-0.375 -0.671875 -0.375 -1.5625q0 -0.875 0.3125 -1.484375q0.3125 -0.609375 0.84375 -1.0q0.546875 -0.390625 1.28125 -0.578125q0.75 -0.1875 1.59375 -0.1875q0.484375 0 0.84375 0.046875q0.359375 0.046875 0.703125 0.109375l3.34375 0l0 1.25zm-6.265625 1.734375q0 1.15625 0.328125 1.734375q0.34375 0.5625 1.046875 0.5625q0.640625 0 0.96875 -0.515625q0.34375 -0.53125 0.34375 -1.625q0 -1.140625 -0.328125 -1.734375q-0.328125 -0.59375 -1.0 -0.59375q-0.6875 0 -1.03125 0.53125q-0.328125 0.53125 -0.328125 1.640625zm-0.328125 6.8125q-0.328125 0.265625 -0.5 0.5625q-0.171875 0.3125 -0.171875 0.703125q0 0.671875 0.578125 0.984375q0.578125 0.328125 1.828125 0.328125q1.171875 0 1.78125 -0.390625q0.609375 -0.390625 0.609375 -1.09375q0 -0.3125 -0.125 -0.546875q-0.109375 -0.21875 -0.4375 -0.375q-0.3125 -0.140625 -0.90625 -0.140625l-1.59375 0q-0.6875 0 -1.0625 -0.03125zm15.717224 -2.28125q-0.9375 1.0 -1.875 1.421875q-0.921875 0.421875 -2.125 0.421875q-2.15625 0 -3.25 -1.1875q-1.09375 -1.1875 -1.09375 -3.515625q0 -1.5 0.5625 -2.59375q0.5625 -1.09375 1.59375 -1.65625q1.03125 -0.5625 2.390625 -0.5625q0.84375 0 1.46875 0.203125q0.640625 0.1875 1.09375 0.546875q0.46875 0.34375 0.765625 0.828125q0.34375 0.59375 0.515625 1.34375q0.1875 0.765625 0.203125 1.859375l-5.890625 0q0.015625 1.6875 0.59375 2.484375q0.59375 0.78125 1.8125 0.78125q0.703125 0 1.265625 -0.265625q0.5625 -0.265625 1.21875 -0.921875l0.75 0.8125zm-2.5 -3.890625q-0.03125 -1.421875 -0.375 -2.109375q-0.328125 -0.703125 -1.078125 -0.703125q-0.703125 0 -1.125 0.734375q-0.421875 0.71875 -0.515625 2.078125l3.09375 0zm12.980164 2.875q0 0.703125 0.015625 1.03125q0.03125 0.3125 0.109375 0.515625q0.078125 0.1875 0.265625 0.3125q0.1875 0.125 0.625 0.21875l0 0.625l-2.53125 0.078125l-1.109375 0l0.078125 -1.328125l-0.140625 -0.015625q-0.671875 0.6875 -1.40625 1.0625q-0.734375 0.359375 -1.40625 0.359375q-1.703125 0 -2.546875 -1.15625q-0.828125 -1.171875 -0.828125 -3.5q0 -1.578125 0.5 -2.65625q0.515625 -1.078125 1.515625 -1.640625q1.015625 -0.5625 2.4375 -0.5625q0.40625 0 0.796875 0.0625q0.40625 0.046875 0.9375 0.203125l0 -0.859375q0 -0.984375 -0.03125 -1.390625q-0.03125 -0.421875 -0.125 -0.640625q-0.078125 -0.21875 -0.25 -0.328125q-0.171875 -0.125 -0.640625 -0.21875l0 -0.625l2.5625 -0.125l1.171875 0l0 10.578125zm-2.6875 -3.453125q0 -1.140625 -0.390625 -1.6875q-0.375 -0.546875 -1.15625 -0.546875q-0.578125 0 -1.0 0.421875q-0.40625 0.40625 -0.609375 1.1875q-0.203125 0.78125 -0.203125 1.84375q0 1.828125 0.390625 2.734375q0.40625 0.890625 1.25 0.890625q0.390625 0 0.78125 -0.1875q0.40625 -0.203125 0.671875 -0.609375q0.265625 -0.421875 0.265625 -0.96875l0 -3.078125zm17.358704 4.46875q-0.9375 1.0 -1.875 1.421875q-0.921875 0.421875 -2.125 0.421875q-2.15625 0 -3.25 -1.1875q-1.09375 -1.1875 -1.09375 -3.515625q0 -1.5 0.5625 -2.59375q0.5625 -1.09375 1.59375 -1.65625q1.03125 -0.5625 2.390625 -0.5625q0.84375 0 1.46875 0.203125q0.640625 0.1875 1.09375 0.546875q0.46875 0.34375 0.765625 0.828125q0.34375 0.59375 0.515625 1.34375q0.1875 0.765625 0.203125 1.859375l-5.890625 0q0.015625 1.6875 0.59375 2.484375q0.59375 0.78125 1.8125 0.78125q0.703125 0 1.265625 -0.265625q0.5625 -0.265625 1.21875 -0.921875l0.75 0.8125zm-2.5 -3.890625q-0.03125 -1.421875 -0.375 -2.109375q-0.328125 -0.703125 -1.078125 -0.703125q-0.703125 0 -1.125 0.734375q-0.421875 0.71875 -0.515625 2.078125l3.09375 0zm8.026978 -3.625l0 0.609375q-0.4375 0.09375 -0.640625 0.265625q-0.203125 0.15625 -0.203125 0.484375q0 0.453125 0.234375 1.15625l1.328125 4.0625l1.484375 -3.546875q0.1875 -0.453125 0.28125 -0.78125q0.09375 -0.34375 0.09375 -0.671875q0 -0.390625 -0.234375 -0.640625q-0.21875 -0.265625 -0.625 -0.328125l0 -0.609375l3.609375 0l0 0.625q-0.265625 0.078125 -0.4375 0.203125q-0.15625 0.125 -0.296875 0.3125q-0.140625 0.1875 -0.359375 0.578125q-0.203125 0.390625 -0.546875 1.171875l-2.890625 6.40625l-1.765625 0l-2.4375 -7.0625q-0.25 -0.734375 -0.421875 -1.0q-0.15625 -0.28125 -0.34375 -0.421875q-0.1875 -0.140625 -0.46875 -0.203125l0 -0.609375l4.640625 0zm14.277039 7.515625q-0.9375 1.0 -1.875 1.421875q-0.921875 0.421875 -2.125 0.421875q-2.15625 0 -3.25 -1.1875q-1.09375 -1.1875 -1.09375 -3.515625q0 -1.5 0.5625 -2.59375q0.5625 -1.09375 1.59375 -1.65625q1.03125 -0.5625 2.390625 -0.5625q0.84375 0 1.46875 0.203125q0.640625 0.1875 1.09375 0.546875q0.46875 0.34375 0.765625 0.828125q0.34375 0.59375 0.515625 1.34375q0.1875 0.765625 0.203125 1.859375l-5.890625 0q0.015625 1.6875 0.59375 2.484375q0.59375 0.78125 1.8125 0.78125q0.703125 0 1.265625 -0.265625q0.5625 -0.265625 1.21875 -0.921875l0.75 0.8125zm-2.5 -3.890625q-0.03125 -1.421875 -0.375 -2.109375q-0.328125 -0.703125 -1.078125 -0.703125q-0.703125 0 -1.125 0.734375q-0.421875 0.71875 -0.515625 2.078125l3.09375 0zm14.089539 5.578125l-4.484375 0l0 -0.609375q0.421875 -0.109375 0.578125 -0.296875q0.171875 -0.203125 0.234375 -0.546875q0.0625 -0.34375 0.0625 -1.21875l0 -2.484375q0 -0.65625 -0.03125 -1.078125q-0.03125 -0.421875 -0.09375 -0.6875q-0.046875 -0.265625 -0.15625 -0.4375q-0.109375 -0.1875 -0.25 -0.296875q-0.125 -0.125 -0.296875 -0.171875q-0.15625 -0.0625 -0.421875 -0.0625q-0.34375 0 -0.734375 0.21875q-0.375 0.21875 -0.640625 0.609375q-0.25 0.375 -0.25 0.8125l0 3.5625q0 0.890625 0.046875 1.234375q0.0625 0.34375 0.234375 0.546875q0.171875 0.1875 0.609375 0.296875l0 0.609375l-4.484375 0l0 -0.609375q0.453125 -0.125 0.625 -0.3125q0.171875 -0.203125 0.21875 -0.53125q0.0625 -0.34375 0.0625 -1.21875l0 -3.8125q0 -0.6875 -0.03125 -1.015625q-0.015625 -0.328125 -0.109375 -0.53125q-0.078125 -0.203125 -0.265625 -0.328125q-0.171875 -0.125 -0.625 -0.21875l0 -0.625l2.546875 -0.078125l1.171875 0l-0.140625 1.34375l0.109375 0.03125q0.578125 -0.515625 1.015625 -0.8125q0.4375 -0.296875 0.90625 -0.46875q0.484375 -0.171875 1.015625 -0.171875q0.75 0 1.25 0.21875q0.515625 0.21875 0.8125 0.640625q0.3125 0.421875 0.453125 1.03125q0.140625 0.59375 0.140625 1.390625l0 3.390625q0 0.421875 0 0.78125q0.015625 0.34375 0.0625 0.5625q0.0625 0.21875 0.15625 0.359375q0.109375 0.125 0.28125 0.21875q0.171875 0.09375 0.421875 0.15625l0 0.609375zm2.3843384 -2.5q0.21875 0.84375 0.703125 1.265625q0.484375 0.421875 1.28125 0.421875q0.703125 0 1.0625 -0.3125q0.359375 -0.328125 0.359375 -0.921875q0 -0.390625 -0.171875 -0.65625q-0.15625 -0.265625 -0.53125 -0.5q-0.375 -0.25 -1.28125 -0.65625q-0.515625 -0.21875 -0.96875 -0.484375q-0.453125 -0.28125 -0.78125 -0.609375q-0.328125 -0.34375 -0.53125 -0.75q-0.1875 -0.421875 -0.1875 -0.9375q0 -0.84375 0.46875 -1.453125q0.484375 -0.609375 1.375 -0.9375q0.90625 -0.328125 2.0625 -0.328125q0.671875 0 1.3125 0.0625q0.65625 0.0625 1.6875 0.234375l0 2.171875l-1.21875 0q-0.21875 -0.59375 -0.484375 -0.921875q-0.25 -0.328125 -0.5625 -0.453125q-0.296875 -0.125 -0.71875 -0.125q-0.609375 0 -0.984375 0.28125q-0.359375 0.28125 -0.359375 0.78125q0 0.34375 0.125 0.609375q0.140625 0.25 0.46875 0.484375q0.34375 0.234375 1.296875 0.625q0.875 0.375 1.421875 0.765625q0.546875 0.390625 0.828125 0.90625q0.28125 0.515625 0.28125 1.203125q0 0.75 -0.28125 1.296875q-0.265625 0.53125 -0.765625 0.890625q-0.5 0.359375 -1.203125 0.53125q-0.703125 0.171875 -1.546875 0.171875q-1.53125 0 -3.40625 -0.4375l0 -2.21875l1.25 0z" fill-rule="nonzero"></path></g></svg>

